<svg fill="none" height="1024" viewBox="0 0 1024 1024" width="1024" xmlns="http://www.w3.org/2000/svg" xmlns:xlink="http://www.w3.org/1999/xlink"><clipPath id="a"><rect height="1024" rx="512" width="1024"/></clipPath><g clip-path="url(#a)"><g stroke-width="2"><path d="m368.79 515.5c-7.12 16.333-11.3 33.167-12.54 50.5-2.627 36.747 7.923 69.027 31.65 96.84 4.607 5.407 9.71 10.293 15.31 14.66" stroke="#878684"/><path d="m403.21 677.5 3.96 3.38c.287.247.23.367-.17.36-34.747-.38-69.5-.377-104.26.01-.166.001-.329.036-.481.101s-.289.161-.404.28c-.114.119-.204.26-.263.415-.06.154-.087.319-.082.484.053 2 .767 3.853 2.14 5.56 1.86 2.293 4.093 3.9 6.7 4.82 1.573.553 4.21.84 7.91.86 36.413.14 72.827.15 109.24.03 10.213-.04 16.797.193 19.75.7 15.76 2.687 32.427 3.687 50 3 3.96-.153 7.577-.673 10.85-1.56 3.627-.98 6.113-1.527 7.46-1.64 2.587-.213 5.567-.313 8.94-.3 43.873.187 103.873.15 180-.11 3.487-.007 6.757-1.2 9.81-3.58 2.84-2.2 4.3-4.953 4.38-8.26.004-.14-.045-.276-.137-.384-.092-.109-.221-.182-.363-.206-1.693-.293-4.257-.447-7.69-.46-33.167-.12-66.44-.037-99.82.25-.493.007-.547-.143-.16-.45l6.23-5.01" stroke="#979293"/><path d="m616.75 675.79c16.627-13.793 28.78-30.807 36.46-51.04" stroke="#8d8b8a"/><path d="m653.21 624.75c4.967-13.04 7.717-26.54 8.25-40.5" stroke="#979293"/><path d="m661.46 584.25c.54-28.013-5.653-54.38-18.58-79.1-4.493-8.6-7.933-15.92-10.32-21.96-2.373-6.033-4.1-12.827-5.18-20.38-.022-.148-.001-.299.059-.438s.157-.261.281-.352c7.96-5.84 14.236-13.143 18.83-21.91 1-1.92 1.73-3.843 2.19-5.77.023-.097.07-.186.138-.259.068-.072.154-.126.249-.155.095-.03.196-.034.293-.012s.187.069.26.136c4.547 4.113 8.26 8.88 11.14 14.3 1.293 2.44 2.42 2.69 3.38.75.513-1.033.47-2.037-.13-3.01-3.94-6.4-8.56-11.68-13.86-15.84-.105-.084-.182-.202-.223-.34-.04-.139-.043-.291-.007-.44l1.52-6.18" stroke="#8d8b8a"/><path d="m651.5 423.29c2.147-12.12-1.24-22.247-10.16-30.38-4.413-4.02-8.9-7.963-13.46-11.83-.107-.093-.178-.22-.202-.359s.002-.281.072-.401c4.24-7.56 3.843-14.603-1.19-21.13-5.347-6.94-12.407-8.593-21.18-4.96-1.74.727-3.463 1.493-5.17 2.3-.142.068-.297.101-.452.098-.155-.004-.305-.044-.438-.118-2.947-1.66-5.957-3.19-9.03-4.59-1.707-.773-3.087-1.59-4.14-2.45-1.253-1.027-2.443-2.127-3.57-3.3-3.253-3.4-7.107-5.853-11.56-7.36-5.187-1.76-7.667.073-7.44 5.5.04.933-.317 1.13-1.07.59-2.807-2.013-5.897-3.957-9.27-5.83-2.427-1.353-4.443-2.107-6.05-2.26-4.933-.46-6.52 1.46-4.76 5.76.733 1.8.283 2.177-1.35 1.13-3.373-2.167-6.92-3.967-10.64-5.4-1.613-.62-3.843-.97-6.69-1.05-3.82-.107-5.067 1.65-3.74 5.27.513 1.407.093 1.787-1.26 1.14-6.007-2.88-12.343-3.863-19.01-2.95-2.873.393-3.807 1.933-2.8 4.62.03.074.04.155.031.235s-.037.156-.083.222c-.045.066-.106.12-.177.157-.072.038-.151.057-.231.056-3.74-.013-7.113.383-10.12 1.19-1.38.367-2.727.27-4.04-.29-6.627-2.813-13.087-3.62-19.38-2.42-6.48 1.24-11.813 4.307-16 9.2-4.107 4.793-6.277 10.617-6.51 17.47-.087 2.673.183 5.217.81 7.63.66 2.513 1.627 4.91 2.9 7.19.073.136.108.289.103.442s-.051.3-.133.428c-6.247 9.787-13.543 18.44-21.89 25.96-.027.027-.907.753-2.64 2.18-1.387 1.147-2.247 2.153-2.58 3.02-1.1 2.867-.503 5.42 1.79 7.66.22.214.35.505.363.813.013.309-.092.611-.293.847-4.14 4.827-8.243 9.9-12.31 15.22-2.86 3.747-3.207 7.67-1.04 11.77.073.135.107.287.1.438-.007.152-.055.298-.14.422-4.307 6.453-9.6 11.91-15.88 16.37-3.027 2.153-4.843 3.727-5.45 4.72-1.607 2.647-1.043 5.38 1.69 8.2.098.102.159.233.172.372s-.023.276-.102.388c-6.707 9.527-12.41 19.62-17.11 30.28" stroke="#979293"/><path d="m651.5 423.29c-.447-1.12-1.07-1.403-1.87-.85-.115.078-.211.192-.28.333-.07.141-.111.304-.12.477-.16 2.833-.983 5.447-2.47 7.84-.075.123-.122.265-.138.417-.015.152.001.31.048.463.327 1.027.287 2.057-.12 3.09-1.667 4.267-4.087 8.023-7.26 11.27-.208.215-.501.372-.84.45-2.213.48-3.147 1.807-2.8 3.98.059.344.016.674-.12.94-1.033 1.993-2.54 3.537-4.52 4.63-.281.157-.52.392-.69.68-.72 1.213-1.727 2.15-3.02 2.81-1.52.773-2.183 2.01-1.99 3.71 1.273 10.993 4.663 21.487 10.17 31.48 6.62 11.993 12.013 24.513 16.18 37.56 5.407 16.893 7.777 34.203 7.11 51.93-.013.335.087.655.28.9 1.293 1.613 2.097 1.23 2.41-1.15" stroke="#292322"/><path d="m653.21 624.75c-.273-.533-.657-.84-1.15-.92-.132-.025-.273.006-.399.088s-.229.21-.291.362c-2.26 5.32-5.237 11.373-8.93 18.16-3.94 7.233-8.537 13.47-13.79 18.71-2.72 2.707-5.32 5.523-7.8 8.45-.627.74-1.973 1.893-4.04 3.46-.993.76-1.013 1.67-.06 2.73" stroke="#292322"/><path d="m403.21 677.5c.207-.674.567-1.224 1.08-1.65.036-.029.062-.066.078-.109.016-.042.02-.089.012-.134-.008-.046-.028-.089-.058-.125s-.068-.065-.112-.082c-1.613-.6-3.37-1.797-5.27-3.59-12.933-12.207-22.833-25.82-29.7-40.84-11.487-25.127-14.717-51.364-9.69-78.71 2.253-12.22 5.59-24.13 10.01-35.73.113-.3.137-.54.07-.72-.107-.307-.387-.41-.84-.31" stroke="#231e1c"/><path d="m657.93 423.62c9.64.96 18.98 3.146 28.02 6.56.88.333 1.56.476 2.04.43 1.02-.1 1.533-.724 1.54-1.87 0-.152-.04-.304-.114-.443-.075-.139-.183-.262-.316-.357-1.24-.887-2.94-1.7-5.1-2.44-9.42-3.22-18.6-5.057-27.54-5.51-1.407-.074-2.17-.09-2.29-.05-.847.273-.897 1.343-.15 3.21.044.106.119.196.213.259.095.062.205.094.317.091 1.113-.034 2.24.006 3.38.12z" stroke="#8d8b8a"/><path d="m654.06 429.78c7.88 4.76 15.257 10.203 22.13 16.33.129.113.274.2.426.253.151.054.306.073.454.057.987-.12 1.54-.68 1.66-1.68.016-.144-.005-.295-.06-.442-.055-.146-.144-.286-.26-.408-6.413-6.733-14.27-12.34-23.57-16.82-.324-.156-.688-.21-1.043-.157-.355.054-.685.213-.947.457-.807.747-.657 1.413.45 2 .467.253.72.39.76.41z" stroke="#8d8b8a"/><path d="m338.43 608.89c1.16.107 1.973-.297 2.44-1.21.425-.831.612-1.762.54-2.69-.587-7.32-1.08-13.983-1.48-19.99-1.273-19.033-.327-37.95 2.84-56.75 1.44-8.52 3.023-17.02 4.75-25.5.933-4.6 1.25-9.247.95-13.94-.019-.344-.139-.66-.34-.9-1.093-1.313-2.117-1.18-3.07.4-2.767 4.593-4.917 10.183-6.45 16.77-6.533 28.073-8.277 56.46-5.23 85.16.373 3.473 1.163 7.977 2.37 13.51.4 1.847 1.033 3.4 1.9 4.66.091.134.207.247.342.33s.285.134.438.15z" stroke="#f0c3a3"/><path d="m329.67 619.057c.516-.248.768-1.035.74-2.318s-.335-3.035-.903-5.158-1.387-4.574-2.408-7.214c-1.022-2.64-2.227-5.416-3.547-8.171s-2.729-5.434-4.146-7.884-2.814-4.624-4.113-6.397c-1.298-1.773-2.472-3.11-3.454-3.936-.982-.825-1.753-1.123-2.27-.876-.516.248-.767 1.035-.739 2.318s.335 3.036.903 5.158c.568 2.123 1.386 4.574 2.408 7.214s2.227 5.416 3.547 8.171 2.728 5.434 4.145 7.884 2.815 4.624 4.113 6.397 2.472 3.11 3.454 3.936c.982.825 1.754 1.123 2.27.876z" stroke="#f0c3a3"/><path d="m687.67 580.16c-4.913 6.32-8.737 13.223-11.47 20.71-1.32 3.62-2.237 6.55-2.75 8.79-.707 3.026-1.023 6.1-.95 9.22.02.966.413 1.156 1.18.57 1.513-1.174 2.797-2.56 3.85-4.16 4.367-6.594 8.03-13.557 10.99-20.89 2.047-5.067 3.437-10.307 4.17-15.72.018-.139.009-.28-.028-.415-.036-.135-.099-.262-.185-.372s-.192-.201-.314-.269c-.121-.067-.255-.11-.393-.124-1.053-.114-1.91.123-2.57.71-.033.033-.543.683-1.53 1.95z" stroke="#f0c3a3"/><path d="m690.25 620.46c-3.127 4.007-5.877 8.257-8.25 12.75" stroke="#8d8b8a"/><path d="m682 633.21c-7.107 11.72-12.107 21.483-15 29.29-.807 2.173-.387 3.16 1.26 2.96.64-.074 1.377-.37 2.21-.89 3.213-2.007 6.203-4.55 8.97-7.63 9.76-10.894 16.193-23.374 19.3-37.44.44-1.974.613-3.927.52-5.86-.073-1.487-.697-1.774-1.87-.86-2.86 2.233-5.24 4.793-7.14 7.68" stroke="#939090"/><path d="m682 633.21 1.44.25c.121.023.259-.007.394-.088.136-.08.264-.207.366-.362l6.96-10.79c.056-.091.075-.208.053-.337-.021-.129-.082-.263-.173-.383l-.79-1.04" stroke="#25211f"/><path d="m334 654.71c-5.147-10.907-11.16-21.31-18.04-31.21" stroke="#8d8b8a"/><path d="m315.96 623.5c-2.62-3.82-5.564-7.24-8.83-10.26-1.514-1.4-2.307-1.07-2.38.99-.08 2.34.186 4.63.8 6.87 4.04 14.753 11.433 27.557 22.18 38.41 2.306 2.327 4.92 4.22 7.84 5.68 2.373 1.187 3.063.593 2.07-1.78l-3.64-8.7" stroke="#959291"/><path d="m315.96 623.5c-.62.38-1.057.887-1.31 1.52-.055.134-.07.286-.044.44.027.155.093.306.194.44 2.913 3.887 5.503 7.973 7.77 12.26 2.3 4.353 3.467 6.557 3.5 6.61 1.82 3.313 3.613 6.64 5.38 9.98.32.607.663.95 1.03 1.03.573.127 1.08-.23 1.52-1.07" stroke="#272320"/><path d="m355.29 661.22c1.893 1.733 3.317 2.806 4.27 3.22 2.907 1.246 3.817.416 2.73-2.49-4.047-10.887-9.933-20.443-17.66-28.67-1.027-1.1-2.17-2.067-3.43-2.9-2.74-1.814-3.713-1.11-2.92 2.11 2.8 11.306 8.47 20.883 17.01 28.73z" stroke="#939090"/><path d="m547.79 350.75c.253 1.833.517 3.663.79 5.49.267 1.84-.343 2.523-1.83 2.05" stroke="#93603f"/><path d="m546.75 358.29-18.25-11.59c-1.287-.82-1.817-.487-1.59 1l.63 4.05" stroke="#97918c"/><path d="m527.54 351.75.52 3.86c.187 1.413-.42 1.8-1.82 1.16-5.973-2.727-11.947-5.293-17.92-7.7-.527-.213-.963-.323-1.31-.33-.787-.007-1.173.32-1.16.98.007.4.213.877.62 1.43.513.713 1.037 1.413 1.57 2.1" stroke="#979290"/><path d="m508.04 353.25c.493 1.48.583 2.963.27 4.45-.026.123-.098.237-.207.327-.109.089-.25.15-.403.173l-2.2.34" stroke="#93603f"/><path d="m505.5 358.54c-3.707-1.48-7.54-2.494-11.5-3.04-1.72-.24-2.303.51-1.75 2.25.287.906.717 1.74 1.29 2.5" stroke="#97918c"/><path d="m493.54 360.25c.6 5.607-1.303 7.497-5.71 5.67" stroke="#93603f"/><path d="m487.83 365.92c-2.633-2.154-5.763-4.357-9.39-6.61-3.473-2.154-7.12-3.217-10.94-3.19-5.507.033-9.82 2.263-12.94 6.69-2.62 3.726-3.153 8.206-1.6 13.44" stroke="#979290"/><path d="m452.96 376.25c-1.26-.207-1.747.21-1.46 1.25.793 2.886 2.027 5.58 3.7 8.08.8 1.2.847 2.433.14 3.7-4.053 7.26-9.083 13.916-15.09 19.97-.747.753-.663 1.266.25 1.54" stroke="#292322"/><path d="m440.5 410.79-8.09 5.77c-.076.053-.137.125-.179.208-.041.082-.06.173-.056.263.004.091.031.177.08.25.048.074.115.132.195.169 1.926.907 4.156 1.443 6.69 1.61.466.033.566.24.3.62-4.4 6.353-9.247 12.343-14.54 17.97-1.874 1.98-3.887 3.77-6.04 5.37-.136.102-.243.238-.31.395-.067.156-.093.327-.074.495.02.168.083.328.183.463.101.135.236.241.391.307 2.086.913 4.473 1.147 7.16.7" stroke="#979290"/><path d="m426.21 445.38c-5.2 9.54-11.617 18.14-19.25 25.8-.76.76-1.667 1.527-2.72 2.3-.973.7-1.933 1.417-2.88 2.15-.48.373-.73.74-.75 1.1-.033.593.43.947 1.39 1.06" stroke="#979290"/><path d="m402 477.79c-.247.833.303 1.677 1.65 2.53.116.073.217.168.296.281.08.112.136.24.166.374.029.135.032.275.008.411-.024.137-.075.267-.15.384-7.847 12.22-14.79 25.043-20.83 38.47-.9 2-1.87 4.413-2.91 7.24-.893 2.44-1.813 4.867-2.76 7.28-.267.687-.43 1.41-.49 2.17-.1 1.213-.197 1.967-.29 2.26-.453 1.453-.113 1.807 1.02 1.06" stroke="#231e1c"/><path d="m377.71 540.25c-1.72 6.813-2.777 13.73-3.17 20.75" stroke="#979290"/><path d="m374.54 561c-.933 5.687-1.197 12.937-.79 21.75.787 17.213 4.807 32.787 12.06 46.72 9.04 17.373 21.807 31.337 38.3 41.89 3.3 2.113 7.083 4.04 11.35 5.78.217.091.456.119.69.082.235-.037.456-.138.64-.292 7.26-6.033 15.183-9.74 23.77-11.12 9.873-1.58 19.053-1.687 27.54-.32 7.893 1.273 14.507 4.713 19.84 10.32 1.62 1.713 3.187 3.08 4.7 4.1.261.176.581.273.92.28l59.54.6" stroke="#733f26"/><path d="m573.1 680.79.29 1.22c.036.148.112.282.219.383.107.102.24.167.381.187 3.08.42 6.313-.21 9.7-1.89 7.507-3.733 14.113-7.647 19.82-11.74 3.02-2.167 6.033-4.973 9.04-8.42 4.08-4.687 8.07-9.443 11.97-14.27.693-.853 1.66-2.33 2.9-4.43.793-1.34 1.8-2.803 3.02-4.39 2.473-3.22 4.503-7.107 6.09-11.66.056-.164.078-.332.064-.49s-.063-.302-.144-.42c-.32-.473-.79-.763-1.41-.87" stroke="#3a2621"/><path d="m635.04 624c.567-1.433.27-2.027-.89-1.78-.707.153-1.19.233-1.45.24-.887.027-1.77.057-2.65.09-.313.007-.62.111-.88.3-3.233 2.333-6.06 3.78-8.48 4.34-1.167.267-2.567-.067-4.2-1-.25-.141-.447-.403-.55-.73-.467-1.42-1.427-1.72-2.88-.9-1.293.733-2.54 1.033-3.74.9-1.113-.127-2.04-.81-2.78-2.05-.64-1.08-1.257-2.363-1.85-3.85-6.293-15.687-8-31.717-5.12-48.09 2.34-13.273 2.133-26.593-.62-39.96-.227-1.093-.047-1.163.54-.21 4.887 7.987 8.48 16.723 10.78 26.21.74 3.047 1.117 6.073 1.13 9.08.013 3.073-.143 6.14-.47 9.2-.66 6.2-.997 9.517-1.01 9.95-.113 3.867.163 7.203.83 10.01 1.333 5.593 2.167 11.267 2.5 17.02.087 1.52.447 1.587 1.08.2 3.347-7.333 5.4-15.24 6.16-23.72.42-4.647.843-9.29 1.27-13.93.033-.34.097-.35.19-.03 1.52 5.293 2.267 10.697 2.24 16.21-.053 8.167.05 16.34.31 24.52.013.493.167.54.46.14 2.393-3.347 4.35-6.907 5.87-10.68 1.293-3.213 2.27-7.113 2.93-11.7 1.2-8.26 1.56-16.583 1.08-24.97-.02-.353.053-.377.22-.07.753 1.413 1.567 3.75 2.44 7.01 2.587 9.673 3.86 18.413 3.82 26.22-.007.48.137.58.43.3.12-.113.19-.287.21-.52.24-2.633.67-5.23 1.29-7.79" stroke="#93603f"/><path d="m643.25 593.96c1.153.8 1.82.48 2-.96 1.207-9.727 1.333-19.82.38-30.28-.207-2.293-.573-4.75-1.1-7.37-.487-2.44-.993-4.873-1.52-7.3-1.947-9.067-5.01-17.73-9.19-25.99-.027-.047-.22-.57-.58-1.57-.293-.82-.857-1.377-1.69-1.67-.116-.041-.231-.118-.336-.227s-.199-.246-.274-.403l-1.15-2.44" stroke="#38221d"/><path d="m629.79 515.75c-7.653-14.02-13.703-28.694-18.15-44.02-.019-.062-.051-.119-.093-.167s-.094-.087-.151-.114c-.058-.026-.121-.04-.184-.04s-.125.014-.182.041l-8.57 4.05" stroke="#733f26"/><path d="m602.46 475.5c-28.34 9.707-56.224 8.687-83.65-3.06-.434-.187-1.054-.62-1.86-1.3-.267-.22-.234-.293.1-.22 17.533 3.873 35.113 4.067 52.74.58" stroke="#93603f"/><path d="m569.79 471.5c14.533-2.427 28.173-7.343 40.92-14.75" stroke="#733f26"/><path d="m610.71 456.75c.647 1.56 1.423 1.937 2.33 1.13.727-.64 1.113-.973 1.16-1 5.107-3.54 8.103-5.687 8.99-6.44 3.84-3.28 7.47-7.927 10.89-13.94 1.133-1.98 2.027-4.213 2.68-6.7.613-2.333 1.2-4.677 1.76-7.03.327-1.36.483-2.723.47-4.09-.013-1.393-.043-2.787-.09-4.18-.047-1.247-.61-1.58-1.69-1" stroke="#352421"/><path d="m637.21 413.5-7.89-.15" stroke="#97918c"/><path d="m629.32 413.35c-1.527-1.147-3.15-2.333-4.87-3.56-2.333-1.667-3.65-3.93-3.95-6.79-.1-.993.12-3.173.66-6.54" stroke="#93603f"/><path d="m621.16 396.46c.907-.993 1.17-1.713.79-2.16-4.767-5.573-9.93-10.757-15.49-15.55" stroke="#97918c"/><path d="m606.46 378.75c.393-1.134-.03-2.197-1.27-3.19-5.04-4.02-10.137-7.967-15.29-11.84-.027-.027-2.237-1.54-6.63-4.54-3.413-2.327-6.477-5.077-9.19-8.25-.727-.847-1.267-.657-1.62.57" stroke="#231e1c"/><path d="m572.46 351.5-1.65-2.33c-.086-.12-.199-.22-.33-.289-.13-.07-.273-.107-.417-.109-.143-.002-.283.032-.405.097-.123.066-.225.163-.298.281-1.054 1.72-1.214 3.493-.48 5.32" stroke="#97918c"/><path d="m568.88 354.47c-.474 1.56-.58 2.883-.32 3.97.46.366.326.903-.4 1.61" stroke="#93603f"/><path d="m568.16 360.05-18.72-13.24c-1.533-1.08-2.18-.6-1.94 1.44l.29 2.5" stroke="#96928d"/><path d="m568.16 360.05c-5.04-1.173-10.24-2.877-15.6-5.11-2.16-.907-3.75-2.303-4.77-4.19" stroke="#f7c7a1"/><path d="m629.32 413.35c2.026 2.673 3.086 5.556 3.18 8.65.18 5.946-1.3 11.55-4.44 16.81-.434.733-.12 1.06.94.98" stroke="#f7c69f"/><path d="m629 439.79c-2.96 4.347-6.543 8.097-10.75 11.25" stroke="#965a35"/><path d="m618.25 451.04c-.46.086-.843.023-1.15-.19-.132-.09-.277-.148-.418-.167-.141-.02-.274 0-.382.057-6.793 3.673-13.143 6.426-19.05 8.26-22.067 6.853-45.133 10.09-69.2 9.71-.04 0-.69-.087-1.95-.26-.747-.1-1.463.006-2.15.32-.333.146-.317.253.05.32 1.413.26 2.82.546 4.22.86 1.527.34 2.937.55 4.23.63 9.46.586 18.917.533 28.37-.16 1.093-.08 2.527-.304 4.3-.67 1.427-.294 2.867-.51 4.32-.65.145-.014.289.023.405.104.117.081.197.201.225.336.133.66.04 1.313-.28 1.96" stroke="#d3753a"/><path d="m602.46 475.5c4.807 9.24 9.59 17.22 14.35 23.94 5.373 7.58 9.367 13.433 11.98 17.56" stroke="#d3753a"/><path d="m628.79 517c5.18 9.133 9.167 19.883 11.96 32.25 3.54 15.653 4.373 30.557 2.5 44.71" stroke="#995731"/><path d="m635.04 624-8.9 15.4" stroke="#9b5b34"/><path d="m626.14 639.4c-18.127 17.88-39.79 28.82-64.99 32.82-13.54 2.146-27.647 3.153-42.32 3.02-.349-.003-.693-.08-1.008-.227-.316-.147-.596-.359-.822-.623-4.56-5.3-10.15-8.99-16.77-11.07-12.774-4.02-25.85-5.544-39.23-4.57-7.547.546-15.32 2.52-23.32 5.92-.2.084-.417.124-.635.115-.218-.008-.431-.065-.625-.165-7.527-3.814-14.187-8.337-19.98-13.57-13.427-12.134-23.407-26.65-29.94-43.55-6.054-15.654-9.64-30.81-10.76-45.47" stroke="#d3753a"/><path d="m375.74 562.03c1.573-10.667 5.223-21.53 10.95-32.59 6.193-11.96 12.28-21.96 18.26-30 1.753-2.354 3.396-4.74 4.93-7.16.473-.747.286-.987-.56-.72-1.174.38-1.894.316-2.16-.19-.18-.36-.06-.86.36-1.5 2.966-4.527 5.85-9.147 8.65-13.86" stroke="#f7c7a4"/><path d="m416.17 476.01c3.133-4.033 5.013-6.6 5.64-7.7 2.86-4.987 5.903-9.86 9.13-14.62 1.327-1.96 2.35-4.89 3.07-8.79.027-.133.05-1.073.07-2.82.013-1.033.35-1.957 1.01-2.77.7-.853 1.063-1.3 1.09-1.34 1.333-1.96 2.68-3.91 4.04-5.85.02-.033.797-1.037 2.33-3.01 1.3-1.673 2.637-3.857 4.01-6.55 1.24-2.433 1.743-4.703 1.51-6.81-.019-.161-.007-.323.036-.476s.116-.293.214-.414c2.233-2.733 4.143-5.673 5.73-8.82.08-.153.5-1.443 1.26-3.87.5-1.58 1.463-2.91 2.89-3.99.273-.207.501-.496.668-.847.168-.35.271-.754.302-1.183l.45-5.9" stroke="#e7955a"/><path d="m459.62 390.25c-.16-4.867-.93-9.637-2.31-14.31-.154-.54.006-1.687.48-3.44" stroke="#f7c7a4"/><path d="m457.79 372.5.71 1.71" stroke="#bd774a"/><path d="m458.5 374.21c1.74-.52 3.507-.863 5.3-1.03 1.613-.153 2.903.22 3.87 1.12 1.513 1.42 2.383 3.36 2.61 5.82.033.323.191.619.438.825.247.207.564.305.882.275 7.8-.693 9.367-4.357 4.7-10.99-2.2-3.14-4.82-5.447-7.86-6.92-1.787-.86-3.683-.783-5.69.23" stroke="#9a5e39"/><path d="m462.75 363.54-1.25.17" stroke="#bd774a"/><path d="m461.5 363.71c1.453-1.654 3.037-2.557 4.75-2.71 3.56-.314 7.013.446 10.36 2.28 1.473.806 2.96 1.416 4.46 1.83 1.507.42 3.337 1.03 5.49 1.83.933.346 1.357.006 1.27-1.02" stroke="#f7c7a4"/><path d="m493.54 360.25c3.86-.053 7.713-.21 11.56-.47.313-.02.553-.113.72-.28.367-.347.26-.667-.32-.96" stroke="#f7c69f"/><path d="m531 353.37c-.68 2.267-1.92 3.66-3.72 4.18-.993.287-2.663.157-5.01-.39-3.793-.9-6.133-1.37-7.02-1.41-3.227-.153-5.63-.987-7.21-2.5" stroke="#f7c7a4"/><path d="m375.74 562.03-1.2-1.03" stroke="#d7a78b"/><path d="m377.71 540.25c3.767-13.853 9.263-26.943 16.49-39.27 2.847-4.86 4.95-8.423 6.31-10.69 2.073-3.473 4.343-6.937 6.81-10.39.062-.089.1-.192.11-.3.009-.109-.01-.219-.055-.322s-.116-.194-.206-.267-.196-.125-.309-.151l-4.86-1.07" stroke="#878581"/><path d="m626.14 639.4c-2.447 4.547-6.347 9.56-11.7 15.04-12.247 12.52-26.027 21.303-41.34 26.35" stroke="#7b3b1c"/><path d="m572.46 351.5c2.273 3.38 4.87 6.047 7.79 8 9.967 6.68 18.703 13.097 26.21 19.25" stroke="#87847c"/><path d="m621.16 396.46c-4.593-4.12-9.297-8.107-14.11-11.96-3.16-2.527-7.657-5.654-13.49-9.38-5.993-3.82-11.827-7.88-17.5-12.18-1.113-.847-3.507-3.67-7.18-8.47" stroke="#f7c69f"/><path d="m546.75 358.29c.14.546.043.91-.29 1.09-.213.113-.517.103-.91-.03-4.8-1.58-9.65-3.574-14.55-5.98" stroke="#f7c69f"/><path d="m531 353.37-3.46-1.62" stroke="#fbf8f1"/><path d="m458.5 374.21c.36-3.967 1.777-7.523 4.25-10.67" stroke="#634031"/><path d="m610.71 456.75 7.54-5.71" stroke="#76391c"/><path d="m629.79 515.75c-.153.56-.487.977-1 1.25" stroke="#793718"/><path d="m461.5 363.71c-2.153 2.547-3.39 5.477-3.71 8.79" stroke="#c1a99b"/><path d="m459.62 390.25c-3.407 9.18-8.393 17.607-14.96 25.28-.48.567-.353.903.38 1.01 1.227.187 1.53.887.91 2.1-1.193 2.32-2.483 4.583-3.87 6.79-.98 1.567-2.51 3.667-4.59 6.3-2.7 3.407-5.28 6.9-7.74 10.48" stroke="#ebc7ac"/><path d="m429.75 442.21c-2.013.06-3.193 1.117-3.54 3.17" stroke="#fbf9f5"/><path d="m440.5 410.79c5.307-4.647 9.833-9.967 13.58-15.96 1.24-1.987 2.7-4.083 4.38-6.29.154-.204.239-.451.243-.707.003-.255-.075-.505-.223-.713-2.4-3.367-4.24-6.99-5.52-10.87" stroke="#8d8b87"/><path d="m637.21 413.5c.28 9.747-2.457 18.51-8.21 26.29" stroke="#9a8b82"/><path d="m416.17 476.01c-2.527-.387-3.184-1.244-1.97-2.57 7.78-8.554 13.776-18.22 17.99-29 .7-1.8-.114-2.544-2.44-2.23" stroke="#ebc7ac"/><path d="m611.42 366.31c2.32.42 4.19 1.63 5.61 3.63.813 1.153 1.326 1.033 1.54-.36.206-1.387-.384-2.767-1.77-4.14-1.98-1.953-3.867-1.94-5.66.04-.407.447-.314.723.28.83z" stroke="#875f47"/><path d="m464.3 680.59c3.653.22 7.407 1.42 11.26 3.6 2.18 1.233 4.89 1.97 8.13 2.21.34.027.43-.11.27-.41-1.14-2.193-2.593-4.16-4.36-5.9-.233-.233-.19-.38.13-.44 2.113-.387 4.017-.25 5.71.41 3.853 1.513 7.66 3.803 11.42 6.87.046.038.101.065.159.079s.118.014.176 0c.057-.014.11-.041.155-.079.044-.038.078-.086.1-.14.413-1.087.327-2.08-.26-2.98-3.333-5.093-8.23-7.697-14.69-7.81-9.26-.167-16.257.107-20.99.82-3.2.48-6.273 1.397-9.22 2.75-.973.453-.933.78.12.98 1.667.327 3.44.97 5.32 1.93 2.44 1.253 5.153 2.023 8.14 2.31.5.047.57-.103.21-.45-.927-.9-1.63-2.003-2.11-3.31-.018-.051-.023-.106-.015-.16s.029-.105.062-.149c.033-.043.076-.078.125-.101s.104-.033.158-.03z" stroke="#926748"/><path d="m535.96 396.75c-1.534.113-1.92.656-1.16 1.63.26.326.643.646 1.15.96 6.386 3.893 11.84 2.883 16.36-3.03 1.986-2.594 1.723-4.847-.79-6.76" stroke="#f29c5c"/><path d="m551.52 389.55c-.534-3.227-2.007-5.55-4.42-6.97-2.32-1.367-4.787-1.65-7.4-.85-1.894.586-3.444 1.693-4.65 3.32-1.127 1.526-1.674 3.236-1.64 5.13.046 2.4.896 4.59 2.55 6.57" stroke="#94603f"/><path d="m551.52 389.55c.24 5.033-1.87 8.246-6.33 9.64-3.347 1.04-6.423.226-9.23-2.44" stroke="#936748"/><path d="m545.28 415.97c-.98.34-1.104.883-.37 1.63.32.327.726.51 1.22.55 1.2.1 2.74-.033 4.62-.4 12.28-2.413 25.316-3.103 39.11-2.07.76.06 1.346.03 1.76-.09 1.246-.347 1.29-1.113.13-2.3" stroke="#f39f63"/><path d="m591.75 413.29 8.74.22c.17.003.335-.031.481-.099s.27-.168.359-.291c.44-.62.513-1.28.22-1.98-.058-.137-.156-.257-.284-.348-.128-.092-.282-.151-.446-.172-18.367-2.467-36.647-1.957-54.84 1.53-2.26.433-2.493 1.707-.7 3.82" stroke="#995731"/><path d="m591.75 413.29c-15.574-.774-31.064.12-46.47 2.68" stroke="#996142"/><path d="m548.37 440.28c.247.114.517.166.787.152s.532-.094.763-.232c6.64-4.014 13.57-7.347 20.79-10 3.573-1.314 7.993-2.57 13.26-3.77 6.293-1.427 10.803-2.32 13.53-2.68 2.067-.274 2.85-1.26 2.35-2.96-.041-.139-.126-.262-.245-.35s-.264-.137-.415-.14c-3.947-.06-8.927.59-14.94 1.95-13.5 3.053-25.367 7.89-35.6 14.51-.707.46-1.157.93-1.35 1.41-.367.906-.01 1.61 1.07 2.11z" stroke="#9b5b34"/><path d="m571.68 448.31c1.113.36 2.1.14 2.96-.66 8.033-7.5 16.987-13.667 26.86-18.5.317-.156.561-.386.69-.65.427-.934.16-1.674-.8-2.22-.271-.155-.608-.205-.95-.14-1.613.28-3.447.963-5.5 2.05-7.147 3.786-13.307 7.783-18.48 11.99-2.26 1.84-4.06 4.05-5.4 6.63-.07.137-.109.288-.115.442s.022.308.081.45c.058.142.147.27.26.375s.247.184.394.233z" stroke="#995731"/><path d="m591.75 454.21c1.04 1.08 1.853 1.157 2.44.23 3.293-5.213 5.433-8.483 6.42-9.81 2.273-3.047 4.247-6.273 5.92-9.68.082-.164.126-.335.13-.497.003-.162-.035-.308-.11-.423-.173-.273-.44-.463-.8-.57" stroke="#f29c5c"/><path d="m605.75 433.46c.92-2.327.33-3.05-1.77-2.17-.587.24-1.19.62-1.81 1.14-6.127 5.087-10.48 11.41-13.06 18.97-.307.907-.317 1.637-.03 2.19.467.913 1.356 1.12 2.67.62" stroke="#995731"/><path d="m605.75 433.46c-5.913 6.06-10.58 12.977-14 20.75" stroke="#985e3a"/><path d="m504.76 523.81c-2.013 3.6-2.933 7.663-2.76 12.19.46 12.067 3.063 23.213 7.81 33.44 1.013 2.18 4.243 8.63 9.69 19.35" stroke="#f7c7a1"/><path d="m519.5 588.79c.24 1.54.893 2.86 1.96 3.96" stroke="#f39f63"/><path d="m521.46 592.75c3.167 5.787 5.19 11.95 6.07 18.49" stroke="#f7c7a1"/><path d="m527.53 611.24c-1.94-4.04-3.954-8.027-6.04-11.96-.86-1.613-1.28-1.463-1.26.45.006.313.046.657.12 1.03.886 4.373 1.506 8.787 1.86 13.24" stroke="#94603f"/><path d="m522.21 614c-1.547-.433-2.117.317-1.71 2.25.933 4.473.32 8.967-1.84 13.48-.147.307-.303.313-.47.02-3.567-6.367-6.77-12.913-9.61-19.64-.713-1.693-1.087-1.647-1.12.14" stroke="#f39f63"/><path d="m507.46 610.25-4.82-12.36c-.44-1.133-.737-1.1-.89.1-.133 1.013-.08 1.997.16 2.95.347 1.4.52 2.117.52 2.15 1.107 6.773 1.54 13.77 1.3 20.99-.047 1.407-.43 1.507-1.15.3-2.647-4.42-5.667-8.967-9.06-13.64-5.153-7.1-9.683-14.58-13.59-22.44-.58-1.167-.893-1.1-.94.2-.18 4.9.22 9.84 1.2 14.82.167.867-.05.983-.65.35l-2.79-2.96" stroke="#94603f"/><path d="m476.75 600.71c-6.153-6.194-11.133-11.7-14.94-16.52-5.053-6.407-9.197-13.407-12.43-21-.227-.534-.393-.517-.5.05-1.427 7.42-.707 14.706 2.16 21.86 2.407 5.986 5.497 11.266 9.27 15.84 3.96 4.786 8.61 9.636 13.95 14.55 3.113 2.86 5.843 6.046 8.19 9.56 1.08 1.62 2.32 3.093 3.72 4.42 1.127 1.06 2.193 1.58 3.2 1.56 1.573-.027 2.547-1.12 2.92-3.28" stroke="#965a35"/><path d="m492.29 627.75c.833-.067 1.403.363 1.71 1.29" stroke="#94603f"/><path d="m494 629.04 7.16 9.81c1.067 1.453 2.417 1.803 4.05 1.05l4.04-1.87c.297-.136.631-.167.941-.086.311.08.58.266.759.526.827 1.207 1.663 2.33 2.51 3.37 1.027 1.267 2.11 2.093 3.25 2.48 1.313.447 2.663.567 4.05.36 1.18-.18 2.25-.85 3.21-2.01.94-1.147 1.85-2.317 2.73-3.51.03-.042.071-.075.118-.098s.101-.034.156-.033c.056.001.112.014.165.039.053.024.101.059.141.102l2.67 2.79c.767.807 1.743.873 2.93.2 1.893-1.067 3.323-2.497 4.29-4.29 4.66-8.68 6.74-17.97 6.24-27.87-.493-9.753-2.567-18.733-6.22-26.94-5.853-13.133-13.403-26.14-22.65-39.02" stroke="#965a35"/><path d="m514.54 544.04-9.78-20.23" stroke="#94603f"/><path d="m514.54 544.04c1.247 4.307 3.547 8.98 6.9 14.02 5.987 9.013 11.153 19.513 15.5 31.5.587 1.627 1.303 5.037 2.15 10.23.093.567.383 1.453.87 2.66.367.907.54 1.84.52 2.8-.047 2.12-.037 3.41.03 3.87 1.193 8.467-.29 16.947-4.45 25.44-1.173 2.4-2.603 4.037-4.29 4.91-.125.066-.271.092-.419.077-.149-.016-.295-.074-.421-.167l-3.11-2.23c-1.213-.867-2.183-.593-2.91.82-1.867 3.593-4.483 4.667-7.85 3.22-1.52-.66-3.267-1.977-5.24-3.95-.98-.98-1.89-1.45-2.73-1.41-1.013.053-2.08.463-3.2 1.23-1.447.987-2.727.8-3.84-.56-1.633-1.987-3.503-4.3-5.61-6.94-.82-1.02-1.633-1.193-2.44-.52" stroke="#372521"/><path d="m492.29 627.75c-.887-.48-1.82-.67-2.8-.57-.16.016-.318.001-.465-.044-.146-.045-.278-.118-.385-.216-2.887-2.64-5.51-5.507-7.87-8.6-1.427-1.887-2.983-3.573-4.67-5.06-3.087-2.727-5.947-5.67-8.58-8.83-1.147-1.38-2.71-2.943-4.69-4.69-3.427-3.013-6.093-6.65-8-10.91-1.02-2.267-2.123-4.493-3.31-6.68-1.093-2.013-.633-3.817 1.38-5.41.103-.083.224-.143.353-.174s.263-.033.393-.006c.13.026.252.081.359.161.106.08.193.182.255.299 2.7 5.04 5.907 9.733 9.62 14.08.273.32.87 1.2 1.79 2.64.613.953 1.393 1.72 2.34 2.3 1.507.92 2.49 1.613 2.95 2.08.867.88 1.74 1.747 2.62 2.6.136.13.284.231.432.293.148.063.292.086.418.067l2.32-.37" stroke="#372521"/><path d="m507.46 610.25c2.847 8.06 6.513 16.15 11 24.27.393.707.733.68 1.02-.08 2.587-6.907 3.497-13.72 2.73-20.44" stroke="#946a50"/><path d="m527.53 611.24c1.793 5.16 2.843 10.477 3.15 15.95.006.133-.014.293-.06.48-.1.373-.014.53.26.47.104-.02.204-.08.288-.172.083-.093.146-.213.182-.348 2.3-9.22 2.433-17.593.4-25.12-2.174-8.033-5.114-15.773-8.82-23.22-3.494-7.013-6.94-14.047-10.34-21.1-5.174-10.713-7.784-22.17-7.83-34.37" stroke="#98928d"/><path d="m521.46 592.75c-.36-1.493-1.013-2.813-1.96-3.96" stroke="#f7d1b2"/><path d="m540.49 388.33c1.573.433 2.743.053 3.51-1.14.083-.129.131-.278.14-.434.008-.155-.023-.312-.09-.456-1.14-2.367-2.577-2.464-4.31-.29-.913 1.153-.663 1.926.75 2.32z" stroke="#989393"/></g><path d="m0 0h1024v1024h-1024zm368.79 515.5c-7.12 16.333-11.3 33.167-12.54 50.5-2.627 36.747 7.923 69.027 31.65 96.84 4.607 5.407 9.71 10.293 15.31 14.66l3.96 3.38c.287.247.23.367-.17.36-34.747-.38-69.5-.377-104.26.01-.165.001-.329.036-.481.101s-.289.161-.404.28c-.114.119-.204.26-.263.414-.06.155-.087.32-.082.485.053 2 .767 3.853 2.14 5.56 1.86 2.293 4.093 3.9 6.7 4.82 1.573.553 4.21.84 7.91.86 36.413.14 72.827.15 109.24.03 10.213-.04 16.797.193 19.75.7 15.76 2.687 32.427 3.687 50 3 3.96-.153 7.577-.673 10.85-1.56 3.627-.98 6.113-1.527 7.46-1.64 2.587-.213 5.567-.313 8.94-.3 43.873.187 103.873.15 180-.11 3.487-.007 6.757-1.2 9.81-3.58 2.84-2.2 4.3-4.953 4.38-8.26.004-.14-.045-.276-.137-.385-.092-.108-.221-.181-.363-.205-1.693-.293-4.257-.447-7.69-.46-33.167-.12-66.44-.037-99.82.25-.493.007-.547-.143-.16-.45l6.23-5.01c16.627-13.793 28.78-30.807 36.46-51.04 4.967-13.04 7.717-26.54 8.25-40.5.54-28.013-5.653-54.38-18.58-79.1-4.493-8.6-7.933-15.92-10.32-21.96-2.373-6.033-4.1-12.827-5.18-20.38-.021-.148-.001-.299.059-.438s.157-.261.281-.352c7.96-5.84 14.237-13.143 18.83-21.91 1-1.92 1.73-3.843 2.19-5.77.023-.097.07-.186.138-.259.068-.072.154-.126.249-.155.095-.03.196-.034.293-.012s.187.069.26.136c4.547 4.113 8.26 8.88 11.14 14.3 1.293 2.44 2.42 2.69 3.38.75.513-1.033.47-2.037-.13-3.01-3.94-6.4-8.56-11.68-13.86-15.84-.104-.084-.182-.202-.222-.34-.041-.139-.044-.291-.008-.44l1.52-6.18c2.147-12.12-1.24-22.247-10.16-30.38-4.413-4.02-8.9-7.963-13.46-11.83-.107-.093-.178-.22-.202-.359s.002-.28.072-.401c4.24-7.56 3.843-14.603-1.19-21.13-5.347-6.94-12.407-8.593-21.18-4.96-1.74.727-3.463 1.493-5.17 2.3-.142.068-.297.101-.452.098-.155-.004-.305-.044-.438-.118-2.947-1.66-5.957-3.19-9.03-4.59-1.707-.773-3.087-1.59-4.14-2.45-1.253-1.027-2.443-2.127-3.57-3.3-3.253-3.4-7.107-5.853-11.56-7.36-5.187-1.76-7.667.073-7.44 5.5.04.933-.317 1.13-1.07.59-2.807-2.013-5.897-3.957-9.27-5.83-2.427-1.353-4.443-2.107-6.05-2.26-4.933-.46-6.52 1.46-4.76 5.76.733 1.8.283 2.177-1.35 1.13-3.373-2.167-6.92-3.967-10.64-5.4-1.613-.62-3.843-.97-6.69-1.05-3.82-.107-5.067 1.65-3.74 5.27.513 1.407.093 1.787-1.26 1.14-6.007-2.88-12.343-3.863-19.01-2.95-2.873.393-3.807 1.933-2.8 4.62.029.075.04.155.031.235s-.037.156-.083.222c-.045.067-.106.121-.177.158-.072.037-.151.056-.231.055-3.74-.013-7.113.383-10.12 1.19-1.38.367-2.727.27-4.04-.29-6.627-2.813-13.087-3.62-19.38-2.42-6.48 1.24-11.813 4.307-16 9.2-4.107 4.793-6.277 10.617-6.51 17.47-.087 2.673.183 5.217.81 7.63.66 2.513 1.627 4.91 2.9 7.19.073.136.108.289.103.442s-.051.301-.133.428c-6.247 9.787-13.543 18.44-21.89 25.96-.027.027-.907.753-2.64 2.18-1.387 1.147-2.247 2.153-2.58 3.02-1.1 2.867-.503 5.42 1.79 7.66.22.214.35.505.363.813.013.309-.092.611-.293.847-4.14 4.827-8.243 9.9-12.31 15.22-2.86 3.747-3.207 7.67-1.04 11.77.072.135.107.287.1.438-.007.152-.055.298-.14.422-4.307 6.453-9.6 11.91-15.88 16.37-3.027 2.153-4.843 3.727-5.45 4.72-1.607 2.647-1.043 5.38 1.69 8.2.098.102.159.233.172.372s-.023.276-.102.388c-6.707 9.527-12.41 19.62-17.11 30.28zm289.14-91.88c9.64.96 18.98 3.147 28.02 6.56.88.333 1.56.477 2.04.43 1.02-.1 1.533-.723 1.54-1.87 0-.152-.04-.304-.114-.443-.075-.139-.183-.261-.316-.357-1.24-.887-2.94-1.7-5.1-2.44-9.42-3.22-18.6-5.057-27.54-5.51-1.407-.073-2.17-.09-2.29-.05-.847.273-.897 1.343-.15 3.21.044.106.119.197.214.259.094.063.205.094.316.091 1.113-.033 2.24.007 3.38.12zm-3.87 6.16c7.88 4.76 15.257 10.203 22.13 16.33.129.114.274.2.426.253.151.054.306.073.454.057.987-.12 1.54-.68 1.66-1.68.016-.144-.005-.295-.06-.441-.056-.147-.144-.287-.26-.409-6.413-6.733-14.27-12.34-23.57-16.82-.324-.156-.688-.21-1.043-.157-.355.054-.685.213-.947.457-.807.747-.657 1.413.45 2 .467.253.72.39.76.41zm-315.63 179.11c1.16.107 1.973-.297 2.44-1.21.425-.831.612-1.762.54-2.69-.587-7.32-1.08-13.983-1.48-19.99-1.273-19.033-.327-37.95 2.84-56.75 1.44-8.52 3.023-17.02 4.75-25.5.933-4.6 1.25-9.247.95-13.94-.02-.344-.139-.66-.34-.9-1.093-1.313-2.117-1.18-3.07.4-2.767 4.593-4.917 10.183-6.45 16.77-6.533 28.073-8.277 56.46-5.23 85.16.373 3.473 1.163 7.977 2.37 13.51.4 1.847 1.033 3.4 1.9 4.66.09.135.207.248.342.33.135.083.284.135.438.15zm-8.76 10.167c.517-.248.768-1.035.74-2.318s-.335-3.036-.903-5.158c-.568-2.123-1.386-4.574-2.408-7.214s-2.227-5.416-3.547-8.171-2.728-5.434-4.145-7.884-2.815-4.624-4.113-6.397c-1.299-1.773-2.472-3.11-3.455-3.936-.982-.825-1.753-1.123-2.269-.876-.517.248-.768 1.035-.74 2.318s.335 3.036.903 5.158c.568 2.123 1.386 4.574 2.408 7.214s2.227 5.416 3.547 8.171 2.728 5.434 4.145 7.884 2.815 4.624 4.113 6.397c1.299 1.773 2.472 3.11 3.455 3.936.982.825 1.753 1.123 2.269.876zm358-38.897c-4.913 6.32-8.737 13.223-11.47 20.71-1.32 3.62-2.237 6.55-2.75 8.79-.707 3.027-1.023 6.1-.95 9.22.02.967.413 1.157 1.18.57 1.513-1.173 2.797-2.56 3.85-4.16 4.367-6.593 8.03-13.557 10.99-20.89 2.047-5.067 3.437-10.307 4.17-15.72.018-.139.009-.28-.028-.415-.036-.135-.099-.261-.185-.371s-.193-.202-.314-.269c-.121-.068-.255-.11-.393-.125-1.053-.113-1.91.123-2.57.71-.033.033-.543.683-1.53 1.95zm2.58 40.3c-3.127 4.007-5.877 8.257-8.25 12.75-7.107 11.72-12.107 21.483-15 29.29-.807 2.173-.387 3.16 1.26 2.96.64-.073 1.377-.37 2.21-.89 3.213-2.007 6.203-4.55 8.97-7.63 9.76-10.893 16.193-23.373 19.3-37.44.44-1.973.613-3.927.52-5.86-.073-1.487-.697-1.773-1.87-.86-2.86 2.233-5.24 4.793-7.14 7.68zm-356.25 34.25c-5.147-10.907-11.16-21.31-18.04-31.21-2.62-3.82-5.563-7.24-8.83-10.26-1.513-1.4-2.307-1.07-2.38.99-.08 2.34.187 4.63.8 6.87 4.04 14.753 11.433 27.557 22.18 38.41 2.307 2.327 4.92 4.22 7.84 5.68 2.373 1.187 3.063.593 2.07-1.78zm21.29 6.51c1.893 1.733 3.317 2.807 4.27 3.22 2.907 1.247 3.817.417 2.73-2.49-4.047-10.887-9.933-20.443-17.66-28.67-1.027-1.1-2.17-2.067-3.43-2.9-2.74-1.813-3.713-1.11-2.92 2.11 2.8 11.307 8.47 20.883 17.01 28.73z" fill="#fbfafb"/><path d="m651.5 423.29c-.447-1.12-1.07-1.403-1.87-.85-.115.078-.211.192-.281.333-.069.14-.11.304-.119.477-.16 2.833-.983 5.447-2.47 7.84-.075.123-.122.265-.138.417s.001.31.048.463c.327 1.027.287 2.057-.12 3.09-1.667 4.267-4.087 8.023-7.26 11.27-.209.215-.501.372-.84.45-2.213.48-3.147 1.807-2.8 3.98.058.343.016.674-.12.94-1.033 1.993-2.54 3.537-4.52 4.63-.282.157-.52.392-.69.68-.72 1.213-1.727 2.15-3.02 2.81-1.52.773-2.183 2.01-1.99 3.71 1.273 10.993 4.663 21.487 10.17 31.48 6.62 11.993 12.013 24.513 16.18 37.56 5.407 16.893 7.777 34.203 7.11 51.93-.013.335.086.655.28.9 1.293 1.613 2.097 1.23 2.41-1.15-.533 13.96-3.283 27.46-8.25 40.5-.273-.533-.657-.84-1.15-.92-.132-.026-.274.005-.4.088-.125.082-.228.21-.29.362-2.26 5.32-5.237 11.373-8.93 18.16-3.94 7.233-8.537 13.47-13.79 18.71-2.72 2.707-5.32 5.523-7.8 8.45-.627.74-1.973 1.893-4.04 3.46-.993.76-1.013 1.67-.06 2.73l-6.23 5.01c-.387.307-.333.457.16.45 33.38-.287 66.653-.37 99.82-.25 3.433.013 5.997.167 7.69.46.142.024.271.097.363.205.092.109.141.245.137.385-.08 3.307-1.54 6.06-4.38 8.26-3.053 2.38-6.323 3.573-9.81 3.58-76.127.26-136.127.297-180 .11-3.373-.013-6.353.087-8.94.3-1.347.113-3.833.66-7.46 1.64-3.273.887-6.89 1.407-10.85 1.56-17.573.687-34.24-.313-50-3-2.953-.507-9.537-.74-19.75-.7-36.413.12-72.827.11-109.24-.03-3.7-.02-6.337-.307-7.91-.86-2.607-.92-4.84-2.527-6.7-4.82-1.373-1.707-2.087-3.56-2.14-5.56-.005-.165.022-.33.082-.485.059-.154.149-.295.263-.414.115-.12.252-.215.404-.28.152-.066.315-.1.481-.101 34.76-.387 69.513-.39 104.26-.01.4.007.457-.113.17-.36l-3.96-3.38c.207-.673.567-1.224 1.08-1.65.035-.029.062-.066.078-.109.016-.042.02-.089.012-.134-.008-.046-.028-.089-.058-.125s-.068-.065-.112-.082c-1.613-.6-3.37-1.797-5.27-3.59-12.933-12.207-22.833-25.82-29.7-40.84-11.487-25.127-14.717-51.363-9.69-78.71 2.253-12.22 5.59-24.13 10.01-35.73.113-.3.137-.54.07-.72-.107-.307-.387-.41-.84-.31 4.7-10.66 10.403-20.753 17.11-30.28.078-.112.114-.249.102-.388-.013-.139-.074-.27-.172-.372-2.733-2.82-3.297-5.553-1.69-8.2.607-.993 2.423-2.567 5.45-4.72 6.28-4.46 11.573-9.917 15.88-16.37.084-.124.133-.27.14-.422.007-.151-.028-.303-.1-.438-2.167-4.1-1.82-8.023 1.04-11.77 4.067-5.32 8.17-10.393 12.31-15.22.201-.236.306-.538.293-.847-.013-.308-.143-.599-.363-.813-2.293-2.24-2.89-4.793-1.79-7.66.333-.867 1.193-1.873 2.58-3.02 1.733-1.427 2.613-2.153 2.64-2.18 8.347-7.52 15.643-16.173 21.89-25.96.082-.128.128-.275.133-.428s-.03-.306-.103-.442c-1.273-2.28-2.24-4.677-2.9-7.19-.627-2.413-.897-4.957-.81-7.63.233-6.853 2.403-12.677 6.51-17.47 4.187-4.893 9.52-7.96 16-9.2 6.293-1.2 12.753-.393 19.38 2.42 1.313.56 2.66.657 4.04.29 3.007-.807 6.38-1.203 10.12-1.19.08.001.159-.018.231-.056.071-.037.132-.091.177-.157.046-.066.074-.142.083-.222s-.002-.161-.031-.235c-1.007-2.687-.073-4.227 2.8-4.62 6.667-.913 13.003.07 19.01 2.95 1.353.647 1.773.267 1.26-1.14-1.327-3.62-.08-5.377 3.74-5.27 2.847.08 5.077.43 6.69 1.05 3.72 1.433 7.267 3.233 10.64 5.4 1.633 1.047 2.083.67 1.35-1.13-1.76-4.3-.173-6.22 4.76-5.76 1.607.153 3.623.907 6.05 2.26 3.373 1.873 6.463 3.817 9.27 5.83.753.54 1.11.343 1.07-.59-.227-5.427 2.253-7.26 7.44-5.5 4.453 1.507 8.307 3.96 11.56 7.36 1.127 1.173 2.317 2.273 3.57 3.3 1.053.86 2.433 1.677 4.14 2.45 3.073 1.4 6.083 2.93 9.03 4.59.133.074.283.114.438.118.155.003.31-.03.452-.098 1.707-.807 3.43-1.573 5.17-2.3 8.773-3.633 15.833-1.98 21.18 4.96 5.033 6.527 5.43 13.57 1.19 21.13-.07.12-.096.262-.072.401.023.139.095.266.202.359 4.56 3.867 9.047 7.81 13.46 11.83 8.92 8.133 12.307 18.26 10.16 30.38zm-103.71-72.54c.253 1.833.517 3.663.79 5.49.267 1.84-.343 2.523-1.83 2.05l-18.25-11.59c-1.287-.82-1.817-.487-1.59 1l.63 4.05.52 3.86c.187 1.413-.42 1.8-1.82 1.16-5.973-2.727-11.947-5.293-17.92-7.7-.527-.213-.963-.323-1.31-.33-.787-.007-1.173.32-1.16.98.007.4.213.877.62 1.43.513.713 1.037 1.413 1.57 2.1.493 1.48.583 2.963.27 4.45-.026.123-.098.237-.207.327-.11.089-.25.149-.403.173l-2.2.34c-3.707-1.48-7.54-2.493-11.5-3.04-1.72-.24-2.303.51-1.75 2.25.287.907.717 1.74 1.29 2.5.6 5.607-1.303 7.497-5.71 5.67-2.633-2.153-5.763-4.357-9.39-6.61-3.473-2.153-7.12-3.217-10.94-3.19-5.507.033-9.82 2.263-12.94 6.69-2.62 3.727-3.153 8.207-1.6 13.44-1.26-.207-1.747.21-1.46 1.25.793 2.887 2.027 5.58 3.7 8.08.8 1.2.847 2.433.14 3.7-4.053 7.26-9.083 13.917-15.09 19.97-.747.753-.663 1.267.25 1.54l-8.09 5.77c-.076.053-.137.125-.178.207-.042.083-.061.174-.057.264s.031.176.08.25c.048.073.115.132.195.169 1.927.907 4.157 1.443 6.69 1.61.467.033.567.24.3.62-4.4 6.353-9.247 12.343-14.54 17.97-1.873 1.98-3.887 3.77-6.04 5.37-.136.102-.243.238-.31.394-.067.157-.093.327-.073.496.019.168.082.328.183.463.1.135.235.241.39.307 2.087.913 4.473 1.147 7.16.7-5.2 9.54-11.617 18.14-19.25 25.8-.76.76-1.667 1.527-2.72 2.3-.973.7-1.933 1.417-2.88 2.15-.48.373-.73.74-.75 1.1-.033.593.43.947 1.39 1.06-.247.833.303 1.677 1.65 2.53.116.073.217.168.296.281.08.112.136.239.166.374.029.135.032.275.008.411s-.075.267-.15.384c-7.847 12.22-14.79 25.043-20.83 38.47-.9 2-1.87 4.413-2.91 7.24-.893 2.44-1.813 4.867-2.76 7.28-.267.687-.43 1.41-.49 2.17-.1 1.213-.197 1.967-.29 2.26-.453 1.453-.113 1.807 1.02 1.06-1.72 6.813-2.777 13.73-3.17 20.75-.933 5.687-1.197 12.937-.79 21.75.787 17.213 4.807 32.786 12.06 46.72 9.04 17.373 21.807 31.336 38.3 41.89 3.3 2.113 7.083 4.04 11.35 5.78.217.091.455.119.69.082s.456-.138.64-.292c7.26-6.033 15.183-9.74 23.77-11.12 9.873-1.58 19.053-1.687 27.54-.32 7.893 1.273 14.507 4.713 19.84 10.32 1.62 1.713 3.187 3.08 4.7 4.1.261.176.581.273.92.28l59.54.6.29 1.22c.035.148.112.281.219.383s.239.167.381.187c3.08.42 6.313-.21 9.7-1.89 7.507-3.733 14.113-7.647 19.82-11.74 3.02-2.167 6.033-4.973 9.04-8.42 4.08-4.687 8.07-9.443 11.97-14.27.693-.853 1.66-2.33 2.9-4.43.793-1.34 1.8-2.803 3.02-4.39 2.473-3.22 4.503-7.107 6.09-11.66.056-.164.078-.332.064-.49s-.064-.302-.144-.42c-.32-.473-.79-.763-1.41-.87.567-1.433.27-2.027-.89-1.78-.707.153-1.19.233-1.45.24-.887.027-1.77.057-2.65.09-.313.007-.62.111-.88.3-3.233 2.333-6.06 3.78-8.48 4.34-1.167.267-2.567-.067-4.2-1-.25-.141-.448-.403-.55-.73-.467-1.42-1.427-1.72-2.88-.9-1.293.733-2.54 1.033-3.74.9-1.113-.127-2.04-.81-2.78-2.05-.64-1.08-1.257-2.363-1.85-3.85-6.293-15.687-8-31.717-5.12-48.09 2.34-13.274 2.133-26.593-.62-39.96-.227-1.093-.047-1.163.54-.21 4.887 7.987 8.48 16.723 10.78 26.21.74 3.047 1.117 6.073 1.13 9.08.013 3.073-.143 6.14-.47 9.2-.66 6.2-.997 9.517-1.01 9.95-.113 3.867.163 7.203.83 10.01 1.333 5.593 2.167 11.267 2.5 17.02.087 1.52.447 1.586 1.08.2 3.347-7.334 5.4-15.24 6.16-23.72.42-4.647.843-9.29 1.27-13.93.033-.34.097-.35.19-.03 1.52 5.293 2.267 10.697 2.24 16.21-.053 8.167.05 16.34.31 24.52.013.493.167.54.46.14 2.393-3.347 4.35-6.907 5.87-10.68 1.293-3.214 2.27-7.113 2.93-11.7 1.2-8.26 1.56-16.583 1.08-24.97-.02-.353.053-.377.22-.07.753 1.413 1.567 3.75 2.44 7.01 2.587 9.673 3.86 18.413 3.82 26.22-.007.48.137.58.43.3.12-.113.19-.287.21-.52.24-2.633.67-5.23 1.29-7.79 1.153.8 1.82.48 2-.96 1.207-9.727 1.333-19.82.38-30.28-.207-2.294-.573-4.75-1.1-7.37-.487-2.44-.993-4.873-1.52-7.3-1.947-9.067-5.01-17.73-9.19-25.99-.027-.047-.22-.57-.58-1.57-.293-.82-.857-1.377-1.69-1.67-.117-.041-.231-.119-.336-.227-.105-.109-.199-.246-.274-.403l-1.15-2.44c-7.653-14.02-13.703-28.693-18.15-44.02-.019-.062-.051-.118-.093-.167-.042-.048-.094-.087-.152-.113-.057-.027-.12-.041-.183-.041s-.125.014-.182.041l-8.57 4.05c-28.34 9.707-56.223 8.687-83.65-3.06-.433-.187-1.053-.62-1.86-1.3-.267-.22-.233-.293.1-.22 17.533 3.873 35.113 4.067 52.74.58 14.533-2.427 28.173-7.343 40.92-14.75.647 1.56 1.423 1.937 2.33 1.13.727-.64 1.113-.973 1.16-1 5.107-3.54 8.103-5.687 8.99-6.44 3.84-3.28 7.47-7.927 10.89-13.94 1.133-1.98 2.027-4.213 2.68-6.7.613-2.333 1.2-4.677 1.76-7.03.327-1.36.483-2.723.47-4.09-.013-1.393-.043-2.787-.09-4.18-.047-1.247-.61-1.58-1.69-1l-7.89-.15c-1.527-1.147-3.15-2.333-4.87-3.56-2.333-1.667-3.65-3.93-3.95-6.79-.1-.993.12-3.173.66-6.54.907-.993 1.17-1.713.79-2.16-4.767-5.573-9.93-10.757-15.49-15.55.393-1.133-.03-2.197-1.27-3.19-5.04-4.02-10.137-7.967-15.29-11.84-.027-.027-2.237-1.54-6.63-4.54-3.413-2.327-6.477-5.077-9.19-8.25-.727-.847-1.267-.657-1.62.57l-1.65-2.33c-.086-.121-.199-.22-.33-.289-.13-.07-.273-.107-.416-.109-.144-.002-.283.031-.406.097s-.225.163-.298.281c-1.053 1.72-1.213 3.493-.48 5.32-.473 1.56-.58 2.883-.32 3.97.46.367.327.903-.4 1.61l-18.72-13.24c-1.533-1.08-2.18-.6-1.94 1.44zm63.63 15.56c2.32.42 4.19 1.63 5.61 3.63.813 1.153 1.327 1.033 1.54-.36.207-1.387-.383-2.767-1.77-4.14-1.98-1.953-3.867-1.94-5.66.04-.407.447-.313.723.28.83zm-147.12 314.28c3.653.22 7.407 1.42 11.26 3.6 2.18 1.233 4.89 1.97 8.13 2.21.34.027.43-.11.27-.41-1.14-2.193-2.593-4.16-4.36-5.9-.233-.233-.19-.38.13-.44 2.113-.387 4.017-.25 5.71.41 3.853 1.513 7.66 3.803 11.42 6.87.046.038.1.065.159.079.058.013.118.013.175 0 .058-.014.111-.041.156-.079.044-.038.078-.086.1-.14.413-1.087.327-2.08-.26-2.98-3.333-5.093-8.23-7.697-14.69-7.81-9.26-.167-16.257.107-20.99.82-3.2.48-6.273 1.397-9.22 2.75-.973.453-.933.78.12.98 1.667.327 3.44.97 5.32 1.93 2.44 1.253 5.153 2.023 8.14 2.31.5.046.57-.103.21-.45-.927-.9-1.63-2.003-2.11-3.31-.018-.051-.024-.107-.015-.16.008-.054.029-.105.062-.149.033-.043.075-.078.125-.101.049-.023.104-.033.158-.03z" fill="#322a2b"/><path d="m568.16 360.05c-5.04-1.174-10.24-2.877-15.6-5.11-2.16-.907-3.75-2.304-4.77-4.19l-.29-2.5c-.24-2.04.407-2.52 1.94-1.44z" fill="#faf9ef"/><path d="m546.75 358.29c.14.547.043.91-.29 1.09-.213.113-.517.103-.91-.03-4.8-1.58-9.65-3.573-14.55-5.98l-3.46-1.62-.63-4.05c-.227-1.487.303-1.82 1.59-1z" fill="#fbf7ec"/><path d="m572.46 351.5c2.274 3.38 4.87 6.047 7.79 8 9.967 6.68 18.704 13.097 26.21 19.25 5.56 4.793 10.724 9.977 15.49 15.55.38.447.117 1.167-.79 2.16-4.593-4.12-9.296-8.107-14.11-11.96-3.16-2.527-7.656-5.653-13.49-9.38-5.993-3.82-11.826-7.88-17.5-12.18-1.113-.847-3.506-3.67-7.18-8.47-.733-1.827-.573-3.6.48-5.32.073-.118.175-.215.298-.281.123-.065.262-.099.406-.097.143.002.287.039.417.109.13.069.243.169.329.289z" fill="#fbf7ec"/><path d="m527.54 351.75 3.46 1.62c-.68 2.267-1.92 3.66-3.72 4.18-.993.287-2.663.157-5.01-.39-3.793-.9-6.133-1.37-7.02-1.41-3.227-.153-5.63-.987-7.21-2.5-.533-.687-1.057-1.387-1.57-2.1-.407-.553-.613-1.03-.62-1.43-.013-.66.373-.987 1.16-.98.347.007.783.117 1.31.33 5.973 2.407 11.947 4.973 17.92 7.7 1.4.64 2.007.253 1.82-1.16z" fill="#fbf9f5"/><path d="m606.46 378.75c-7.507-6.154-16.243-12.57-26.21-19.25-2.92-1.954-5.517-4.62-7.79-8 .353-1.227.893-1.417 1.62-.57 2.713 3.173 5.777 5.923 9.19 8.25 4.393 3 6.603 4.513 6.63 4.54 5.153 3.873 10.25 7.82 15.29 11.84 1.24.993 1.663 2.056 1.27 3.19z" fill="#13110c"/><path d="m547.79 350.75c1.02 1.887 2.61 3.283 4.77 4.19 5.36 2.233 10.56 3.937 15.6 5.11.727-.707.86-1.243.4-1.61-.26-1.087-.153-2.41.32-3.97 3.674 4.8 6.067 7.623 7.18 8.47 5.674 4.3 11.507 8.36 17.5 12.18 5.834 3.727 10.33 6.853 13.49 9.38 4.814 3.853 9.517 7.84 14.11 11.96-.54 3.367-.76 5.547-.66 6.54.3 2.86 1.617 5.123 3.95 6.79 1.72 1.227 3.344 2.413 4.87 3.56 2.027 2.673 3.087 5.557 3.18 8.65.18 5.947-1.3 11.55-4.44 16.81-.433.733-.12 1.06.94.98-2.96 4.347-6.543 8.097-10.75 11.25-.46.087-.843.023-1.15-.19-.132-.09-.277-.148-.418-.167-.141-.02-.273 0-.382.057-6.793 3.673-13.143 6.427-19.05 8.26-22.066 6.853-45.133 10.09-69.2 9.71-.04 0-.69-.087-1.95-.26-.746-.1-1.463.007-2.15.32-.333.147-.316.253.05.32 1.414.26 2.82.547 4.22.86 1.527.34 2.937.55 4.23.63 9.46.587 18.917.533 28.37-.16 1.094-.08 2.527-.303 4.3-.67 1.427-.293 2.867-.51 4.32-.65.145-.014.289.023.406.104.116.081.196.201.224.336.134.66.04 1.313-.28 1.96-17.626 3.487-35.206 3.293-52.74-.58-.333-.073-.366 0-.1.22.807.68 1.427 1.113 1.86 1.3 27.427 11.747 55.31 12.767 83.65 3.06 4.807 9.24 9.59 17.22 14.35 23.94 5.374 7.58 9.367 13.433 11.98 17.56 5.18 9.133 9.167 19.883 11.96 32.25 3.54 15.653 4.374 30.557 2.5 44.71-.62 2.56-1.05 5.157-1.29 7.79-.02.233-.09.407-.21.52-.293.28-.436.18-.43-.3.04-7.807-1.233-16.547-3.82-26.22-.873-3.26-1.686-5.597-2.44-7.01-.166-.307-.24-.283-.22.07.48 8.387.12 16.71-1.08 24.97-.66 4.587-1.636 8.487-2.93 11.7-1.52 3.773-3.476 7.333-5.87 10.68-.293.4-.446.353-.46-.14-.26-8.18-.363-16.353-.31-24.52.027-5.513-.72-10.917-2.24-16.21-.093-.32-.156-.31-.19.03-.426 4.64-.85 9.283-1.27 13.93-.76 8.48-2.813 16.387-6.16 23.72-.633 1.387-.993 1.32-1.08-.2-.333-5.753-1.166-11.427-2.5-17.02-.666-2.807-.943-6.143-.83-10.01.014-.433.35-3.75 1.01-9.95.327-3.06.484-6.127.47-9.2-.013-3.007-.39-6.033-1.13-9.08-2.3-9.487-5.893-18.223-10.78-26.21-.586-.953-.766-.883-.54.21 2.754 13.367 2.96 26.687.62 39.96-2.88 16.373-1.173 32.403 5.12 48.09.594 1.487 1.21 2.77 1.85 3.85.74 1.24 1.667 1.923 2.78 2.05 1.2.133 2.447-.167 3.74-.9 1.454-.82 2.414-.52 2.88.9.103.327.3.589.55.73 1.634.933 3.034 1.267 4.2 1 2.42-.56 5.247-2.007 8.48-4.34.26-.189.567-.293.88-.3.88-.033 1.764-.063 2.65-.09.26-.007.744-.087 1.45-.24 1.16-.247 1.457.347.89 1.78l-8.9 15.4c-18.126 17.88-39.79 28.82-64.99 32.82-13.54 2.147-27.646 3.153-42.32 3.02-.348-.003-.692-.08-1.008-.227-.315-.147-.596-.359-.822-.623-4.56-5.3-10.15-8.99-16.77-11.07-12.773-4.02-25.85-5.543-39.23-4.57-7.546.547-15.32 2.52-23.32 5.92-.2.085-.417.124-.634.115-.218-.008-.432-.065-.626-.165-7.526-3.813-14.186-8.337-19.98-13.57-13.426-12.133-23.406-26.65-29.94-43.55-6.053-15.653-9.64-30.81-10.76-45.47 1.574-10.667 5.224-21.53 10.95-32.59 6.194-11.96 12.28-21.96 18.26-30 1.754-2.353 3.397-4.74 4.93-7.16.474-.747.287-.987-.56-.72-1.173.38-1.893.317-2.16-.19-.18-.36-.06-.86.36-1.5 2.967-4.527 5.85-9.147 8.65-13.86 3.134-4.033 5.014-6.6 5.64-7.7 2.86-4.987 5.904-9.86 9.13-14.62 1.327-1.96 2.35-4.89 3.07-8.79.027-.133.05-1.073.07-2.82.014-1.033.35-1.957 1.01-2.77.7-.853 1.064-1.3 1.09-1.34 1.334-1.96 2.68-3.91 4.04-5.85.02-.033.797-1.037 2.33-3.01 1.3-1.673 2.637-3.857 4.01-6.55 1.24-2.433 1.744-4.703 1.51-6.81-.019-.161-.006-.323.037-.476s.115-.293.213-.414c2.234-2.733 4.144-5.673 5.73-8.82.08-.153.5-1.443 1.26-3.87.5-1.58 1.464-2.91 2.89-3.99.273-.207.501-.496.669-.847.167-.35.27-.754.301-1.183l.45-5.9c-.16-4.867-.93-9.637-2.31-14.31-.153-.54.007-1.687.48-3.44l.71 1.71c1.74-.52 3.507-.863 5.3-1.03 1.614-.153 2.904.22 3.87 1.12 1.514 1.42 2.384 3.36 2.61 5.82.034.323.191.619.438.825.247.207.564.305.882.275 7.8-.693 9.367-4.357 4.7-10.99-2.2-3.14-4.82-5.447-7.86-6.92-1.786-.86-3.683-.783-5.69.23l-1.25.17c1.454-1.653 3.037-2.557 4.75-2.71 3.56-.313 7.014.447 10.36 2.28 1.474.807 2.96 1.417 4.46 1.83 1.507.42 3.337 1.03 5.49 1.83.934.347 1.357.007 1.27-1.02 4.407 1.827 6.31-.063 5.71-5.67 3.86-.053 7.714-.21 11.56-.47.314-.02.554-.113.72-.28.367-.347.26-.667-.32-.96l2.2-.34c.153-.023.294-.084.403-.173.109-.09.181-.204.207-.327.314-1.487.224-2.97-.27-4.45 1.58 1.513 3.984 2.347 7.21 2.5.887.04 3.227.51 7.02 1.41 2.347.547 4.017.677 5.01.39 1.8-.52 3.04-1.913 3.72-4.18 4.9 2.407 9.75 4.4 14.55 5.98.394.133.697.143.91.03.334-.18.43-.543.29-1.09 1.487.473 2.097-.21 1.83-2.05-.273-1.827-.536-3.657-.79-5.49zm-11.83 46c-1.533.113-1.92.657-1.16 1.63.26.327.644.647 1.15.96 6.387 3.893 11.84 2.883 16.36-3.03 1.987-2.593 1.724-4.847-.79-6.76-.533-3.227-2.006-5.55-4.42-6.97-2.32-1.367-4.786-1.65-7.4-.85-1.893.587-3.443 1.693-4.65 3.32-1.126 1.527-1.673 3.237-1.64 5.13.047 2.4.897 4.59 2.55 6.57zm9.32 19.22c-.98.34-1.103.883-.37 1.63.32.327.727.51 1.22.55 1.2.1 2.74-.033 4.62-.4 12.28-2.413 25.317-3.103 39.11-2.07.76.06 1.347.03 1.76-.09 1.247-.347 1.29-1.113.13-2.3l8.74.22c.17.003.335-.031.481-.099.147-.068.27-.168.359-.291.44-.62.514-1.28.22-1.98-.058-.137-.156-.257-.284-.348-.128-.092-.282-.151-.446-.172-18.366-2.467-36.646-1.957-54.84 1.53-2.26.433-2.493 1.707-.7 3.82zm3.09 24.31c.247.114.517.166.787.152.271-.014.532-.093.763-.232 6.64-4.013 13.57-7.347 20.79-10 3.574-1.313 7.994-2.57 13.26-3.77 6.294-1.427 10.804-2.32 13.53-2.68 2.067-.273 2.85-1.26 2.35-2.96-.04-.139-.126-.261-.245-.349-.119-.089-.264-.138-.415-.141-3.946-.06-8.926.59-14.94 1.95-13.5 3.053-25.366 7.89-35.6 14.51-.706.46-1.156.93-1.35 1.41-.366.907-.01 1.61 1.07 2.11zm23.31 8.03c1.114.36 2.1.14 2.96-.66 8.034-7.5 16.987-13.667 26.86-18.5.318-.156.561-.385.69-.65.427-.933.16-1.673-.8-2.22-.271-.155-.608-.204-.95-.14-1.613.28-3.446.963-5.5 2.05-7.146 3.787-13.306 7.783-18.48 11.99-2.26 1.84-4.06 4.05-5.4 6.63-.069.137-.109.288-.115.442-.005.154.022.308.081.45.059.143.148.271.261.376s.247.184.393.232zm20.07 5.9c1.04 1.08 1.854 1.157 2.44.23 3.294-5.213 5.434-8.483 6.42-9.81 2.274-3.047 4.247-6.273 5.92-9.68.082-.164.127-.335.13-.497.004-.162-.034-.308-.11-.423-.173-.273-.44-.463-.8-.57.92-2.327.33-3.05-1.77-2.17-.586.24-1.19.62-1.81 1.14-6.126 5.087-10.48 11.41-13.06 18.97-.306.907-.316 1.637-.03 2.19.467.913 1.357 1.12 2.67.62zm-86.99 69.6c-2.013 3.6-2.933 7.663-2.76 12.19.46 12.067 3.064 23.213 7.81 33.44 1.014 2.18 4.244 8.63 9.69 19.35.24 1.54.894 2.86 1.96 3.96 3.167 5.787 5.19 11.95 6.07 18.49-1.94-4.04-3.953-8.027-6.04-11.96-.86-1.613-1.28-1.463-1.26.45.007.313.047.657.12 1.03.887 4.373 1.507 8.787 1.86 13.24-1.546-.433-2.116.317-1.71 2.25.934 4.473.32 8.967-1.84 13.48-.146.307-.303.313-.47.02-3.566-6.367-6.77-12.913-9.61-19.64-.713-1.693-1.086-1.647-1.12.14l-4.82-12.36c-.44-1.133-.736-1.1-.89.1-.133 1.013-.08 1.997.16 2.95.347 1.4.52 2.117.52 2.15 1.107 6.773 1.54 13.77 1.3 20.99-.046 1.407-.43 1.507-1.15.3-2.646-4.42-5.666-8.967-9.06-13.64-5.153-7.1-9.683-14.58-13.59-22.44-.58-1.167-.893-1.1-.94.2-.18 4.9.22 9.84 1.2 14.82.167.867-.05.983-.65.35l-2.79-2.96c-6.153-6.193-11.133-11.7-14.94-16.52-5.053-6.407-9.196-13.407-12.43-21-.226-.533-.393-.517-.5.05-1.426 7.42-.706 14.707 2.16 21.86 2.407 5.987 5.497 11.267 9.27 15.84 3.96 4.787 8.61 9.637 13.95 14.55 3.114 2.86 5.844 6.047 8.19 9.56 1.08 1.62 2.32 3.093 3.72 4.42 1.127 1.06 2.194 1.58 3.2 1.56 1.574-.027 2.547-1.12 2.92-3.28.834-.067 1.404.363 1.71 1.29l7.16 9.81c1.067 1.453 2.417 1.803 4.05 1.05l4.04-1.87c.297-.136.631-.167.942-.086.311.08.579.266.758.526.827 1.207 1.664 2.33 2.51 3.37 1.027 1.267 2.11 2.093 3.25 2.48 1.314.447 2.664.567 4.05.36 1.18-.18 2.25-.85 3.21-2.01.94-1.147 1.85-2.317 2.73-3.51.031-.042.071-.075.118-.098.048-.023.101-.034.156-.033.056.001.112.014.165.039.053.024.101.059.141.102l2.67 2.79c.767.807 1.744.873 2.93.2 1.894-1.067 3.324-2.497 4.29-4.29 4.66-8.68 6.74-17.97 6.24-27.87-.493-9.753-2.566-18.733-6.22-26.94-5.853-13.133-13.403-26.14-22.65-39.02z" fill="#f39552"/><path d="m505.5 358.54c.58.294.687.614.32.96-.167.167-.407.26-.72.28-3.847.26-7.7.417-11.56.47-.573-.76-1.003-1.593-1.29-2.5-.553-1.74.03-2.49 1.75-2.25 3.96.547 7.793 1.56 11.5 3.04z" fill="#fbf7ec"/><path d="m487.83 365.92c.087 1.027-.336 1.367-1.27 1.02-2.153-.8-3.983-1.41-5.49-1.83-1.5-.413-2.986-1.023-4.46-1.83-3.346-1.833-6.8-2.593-10.36-2.28-1.713.153-3.296 1.057-4.75 2.71-2.153 2.547-3.39 5.477-3.71 8.79-.473 1.753-.633 2.9-.48 3.44 1.38 4.673 2.15 9.443 2.31 14.31-3.406 9.18-8.393 17.607-14.96 25.28-.48.567-.353.903.38 1.01 1.227.187 1.53.887.91 2.1-1.193 2.32-2.483 4.583-3.87 6.79-.98 1.567-2.51 3.667-4.59 6.3-2.7 3.407-5.28 6.9-7.74 10.48-2.013.06-3.193 1.117-3.54 3.17-2.686.447-5.073.213-7.16-.7-.155-.066-.289-.172-.39-.307s-.164-.295-.183-.463.006-.339.073-.495c.068-.156.174-.293.31-.395 2.154-1.6 4.167-3.39 6.04-5.37 5.294-5.627 10.14-11.617 14.54-17.97.267-.38.167-.587-.3-.62-2.533-.167-4.763-.703-6.69-1.61-.079-.037-.147-.095-.195-.169-.048-.073-.076-.159-.08-.249-.004-.091.016-.182.057-.264.041-.083.103-.155.178-.208l8.09-5.77c5.307-4.647 9.834-9.967 13.58-15.96 1.24-1.987 2.7-4.083 4.38-6.29.154-.204.239-.451.243-.707.003-.255-.075-.505-.223-.713-2.4-3.367-4.24-6.99-5.52-10.87-1.553-5.233-1.02-9.713 1.6-13.44 3.12-4.427 7.434-6.657 12.94-6.69 3.82-.027 7.467 1.037 10.94 3.19 3.627 2.253 6.757 4.457 9.39 6.61z" fill="#fbf9f5"/><path d="m458.5 374.21c.36-3.967 1.777-7.523 4.25-10.67 2.007-1.013 3.903-1.09 5.69-.23 3.04 1.473 5.66 3.78 7.86 6.92 4.667 6.633 3.1 10.297-4.7 10.99-.318.03-.635-.068-.882-.275-.247-.206-.405-.502-.438-.825-.227-2.46-1.097-4.4-2.61-5.82-.967-.9-2.257-1.273-3.87-1.12-1.793.167-3.56.51-5.3 1.03z" fill="#402720"/><path d="m462.75 363.54c-2.473 3.147-3.89 6.703-4.25 10.67l-.71-1.71c.32-3.313 1.557-6.243 3.71-8.79z" fill="#865941"/><path d="m611.42 366.31c-.593-.107-.686-.383-.28-.83 1.794-1.98 3.68-1.993 5.66-.04 1.387 1.373 1.977 2.753 1.77 4.14-.213 1.393-.726 1.513-1.54.36-1.42-2-3.29-3.21-5.61-3.63z" fill="#db9462"/><path d="m452.96 376.25c1.28 3.88 3.12 7.503 5.52 10.87.148.208.226.458.222.713-.003.256-.088.503-.242.707-1.68 2.207-3.14 4.303-4.38 6.29-3.747 5.993-8.273 11.313-13.58 15.96-.913-.273-.997-.787-.25-1.54 6.007-6.053 11.037-12.71 15.09-19.97.707-1.267.66-2.5-.14-3.7-1.673-2.5-2.907-5.193-3.7-8.08-.287-1.04.2-1.457 1.46-1.25z" fill="#1f1c19"/><path d="m551.52 389.55c.24 5.034-1.87 8.247-6.33 9.64-3.347 1.04-6.423.227-9.23-2.44-1.653-1.98-2.503-4.17-2.55-6.57-.033-1.893.513-3.603 1.64-5.13 1.207-1.626 2.757-2.733 4.65-3.32 2.614-.8 5.08-.516 7.4.85 2.413 1.42 3.887 3.744 4.42 6.97zm-11.03-1.22c1.573.434 2.743.054 3.51-1.14.083-.129.131-.278.14-.433.008-.156-.022-.313-.09-.457-1.14-2.366-2.577-2.463-4.31-.29-.913 1.154-.663 1.927.75 2.32z" fill="#352b2b"/><path d="m540.49 388.33c-1.413-.394-1.663-1.167-.75-2.32 1.733-2.174 3.17-2.077 4.31.29.067.144.098.301.09.456-.009.156-.057.305-.14.434-.767 1.193-1.937 1.573-3.51 1.14z" fill="#fbfafb"/><path d="m551.52 389.55c2.514 1.913 2.777 4.166.79 6.76-4.52 5.913-9.973 6.923-16.36 3.03-.506-.314-.89-.634-1.15-.96-.76-.974-.373-1.517 1.16-1.63 2.807 2.666 5.883 3.48 9.23 2.44 4.46-1.394 6.57-4.607 6.33-9.64z" fill="#f1a365"/><path d="m459.62 390.25-.45 5.9c-.031.429-.134.833-.302 1.183-.167.351-.396.64-.668.847-1.427 1.08-2.39 2.41-2.89 3.99-.76 2.427-1.18 3.717-1.26 3.87-1.587 3.147-3.497 6.087-5.73 8.82-.098.121-.171.261-.214.414s-.055.315-.036.476c.233 2.107-.27 4.377-1.51 6.81-1.374 2.693-2.71 4.877-4.01 6.55-1.534 1.973-2.31 2.977-2.33 3.01-1.36 1.94-2.707 3.89-4.04 5.85-.027.04-.39.487-1.09 1.34-.66.813-.997 1.737-1.01 2.77-.02 1.747-.044 2.687-.07 2.82-.72 3.9-1.744 6.83-3.07 8.79-3.227 4.76-6.27 9.633-9.13 14.62-.627 1.1-2.507 3.667-5.64 7.7-2.527-.387-3.184-1.243-1.97-2.57 7.78-8.553 13.776-18.22 17.99-29 .7-1.8-.114-2.543-2.44-2.23 2.46-3.58 5.04-7.073 7.74-10.48 2.08-2.633 3.61-4.733 4.59-6.3 1.386-2.207 2.676-4.47 3.87-6.79.62-1.213.316-1.913-.91-2.1-.734-.107-.86-.443-.38-1.01 6.566-7.673 11.553-16.1 14.96-25.28z" fill="#db9462"/><path d="m591.75 413.29c-15.573-.773-31.063.12-46.47 2.68-1.793-2.113-1.56-3.387.7-3.82 18.193-3.487 36.473-3.997 54.84-1.53.164.021.318.08.446.172.128.091.226.211.284.348.293.7.22 1.36-.22 1.98-.089.123-.213.223-.359.291s-.311.102-.481.099z" fill="#3e190f"/><path d="m591.75 413.29c1.16 1.187 1.116 1.953-.13 2.3-.414.12-1 .15-1.76.09-13.794-1.033-26.83-.343-39.11 2.07-1.88.367-3.42.5-4.62.4-.494-.04-.9-.223-1.22-.55-.734-.747-.61-1.29.37-1.63 15.406-2.56 30.896-3.453 46.47-2.68z" fill="#f3a874"/><path d="m629.32 413.35 7.89.15c.28 9.747-2.456 18.51-8.21 26.29-1.06.08-1.373-.247-.94-.98 3.14-5.26 4.62-10.863 4.44-16.81-.093-3.093-1.153-5.977-3.18-8.65z" fill="#fbf7ec"/><path d="m610.71 456.75 7.54-5.71c4.207-3.153 7.79-6.903 10.75-11.25 5.753-7.78 8.49-16.543 8.21-26.29 1.08-.58 1.643-.247 1.69 1 .047 1.393.077 2.787.09 4.18.013 1.367-.143 2.73-.47 4.09-.56 2.353-1.147 4.697-1.76 7.03-.653 2.487-1.547 4.72-2.68 6.7-3.42 6.013-7.05 10.66-10.89 13.94-.887.753-3.883 2.9-8.99 6.44-.047.027-.433.36-1.16 1-.907.807-1.683.43-2.33-1.13z" fill="#381e17"/><path d="m657.93 423.62c-1.14-.113-2.267-.153-3.38-.12-.112.004-.222-.028-.317-.091-.094-.062-.169-.152-.213-.259-.747-1.867-.697-2.937.15-3.21.12-.04.883-.023 2.29.05 8.94.453 18.12 2.29 27.54 5.51 2.16.74 3.86 1.553 5.1 2.44.133.096.241.218.316.357.074.139.114.291.114.443-.007 1.147-.52 1.77-1.54 1.87-.48.047-1.16-.097-2.04-.43-9.04-3.413-18.38-5.6-28.02-6.56z" fill="#1f1c19"/><path d="m548.37 440.28c-1.08-.5-1.437-1.203-1.07-2.11.193-.48.643-.95 1.35-1.41 10.233-6.62 22.1-11.456 35.6-14.51 6.013-1.36 10.993-2.01 14.94-1.95.151.003.296.053.415.141s.204.21.245.349c.5 1.7-.283 2.687-2.35 2.96-2.727.36-7.237 1.254-13.53 2.68-5.267 1.2-9.687 2.457-13.26 3.77-7.22 2.654-14.15 5.987-20.79 10-.231.139-.493.218-.763.232s-.54-.038-.787-.152z" fill="#422116"/><path d="m651.5 423.29-1.52 6.18c-.036.149-.033.301.008.44.04.138.118.256.222.34 5.3 4.16 9.92 9.44 13.86 15.84.6.973.643 1.977.13 3.01-.96 1.94-2.087 1.69-3.38-.75-2.88-5.42-6.593-10.187-11.14-14.3-.073-.067-.163-.114-.26-.136s-.198-.018-.293.012c-.095.029-.181.083-.249.155-.068.073-.115.162-.138.259-.46 1.927-1.19 3.85-2.19 5.77-4.593 8.767-10.87 16.07-18.83 21.91-.124.091-.221.213-.281.352s-.08.29-.059.438c1.08 7.553 2.807 14.347 5.18 20.38 2.387 6.04 5.827 13.36 10.32 21.96 12.927 24.72 19.12 51.087 18.58 79.1-.313 2.38-1.117 2.763-2.41 1.15-.193-.245-.293-.565-.28-.9.667-17.727-1.703-35.037-7.11-51.93-4.167-13.047-9.56-25.567-16.18-37.56-5.507-9.993-8.897-20.487-10.17-31.48-.193-1.7.47-2.937 1.99-3.71 1.293-.66 2.3-1.597 3.02-2.81.17-.288.409-.523.69-.68 1.98-1.093 3.487-2.637 4.52-4.63.136-.266.179-.596.12-.94-.347-2.173.587-3.5 2.8-3.98.339-.078.632-.235.84-.45 3.173-3.247 5.593-7.003 7.26-11.27.407-1.033.447-2.063.12-3.09-.047-.153-.063-.311-.048-.463.016-.152.063-.294.138-.417 1.487-2.393 2.31-5.007 2.47-7.84.009-.173.05-.336.12-.477.069-.141.165-.255.28-.333.8-.553 1.423-.27 1.87.85z" fill="#1f1c19"/><path d="m571.68 448.31c-.147-.048-.281-.127-.394-.232s-.202-.233-.26-.376c-.059-.142-.087-.295-.081-.449s.045-.305.115-.443c1.34-2.58 3.14-4.79 5.4-6.63 5.173-4.207 11.333-8.203 18.48-11.99 2.053-1.087 3.887-1.77 5.5-2.05.342-.064.679-.014.95.14.96.547 1.227 1.287.8 2.22-.129.265-.373.494-.69.65-9.873 4.833-18.827 11-26.86 18.5-.86.8-1.847 1.02-2.96.66z" fill="#3e190f"/><path d="m653.3 429.37c-1.107-.587-1.257-1.253-.45-2 .262-.244.592-.403.947-.457.355-.053.719.001 1.043.157 9.3 4.48 17.157 10.087 23.57 16.82.116.122.205.262.26.408.055.147.076.298.06.442-.12 1-.673 1.56-1.66 1.68-.148.016-.303-.003-.454-.057-.152-.053-.297-.14-.426-.253-6.873-6.127-14.25-11.57-22.13-16.33-.04-.02-.293-.157-.76-.41z" fill="#1f1c19"/><path d="m605.75 433.46c-5.914 6.06-10.58 12.977-14 20.75-1.314.5-2.203.293-2.67-.62-.287-.553-.277-1.283.03-2.19 2.58-7.56 6.933-13.883 13.06-18.97.62-.52 1.223-.9 1.81-1.14 2.1-.88 2.69-.157 1.77 2.17z" fill="#3e190f"/><path d="m605.75 433.46c.36.107.627.297.8.57.075.115.113.261.11.423-.004.162-.048.333-.13.497-1.673 3.407-3.647 6.633-5.92 9.68-.987 1.327-3.127 4.597-6.42 9.81-.587.927-1.4.85-2.44-.23 3.42-7.773 8.087-14.69 14-20.75z" fill="#f1a365"/><path d="m429.75 442.21c2.327-.314 3.14.43 2.44 2.23-4.213 10.78-10.21 20.446-17.99 29-1.213 1.326-.557 2.183 1.97 2.57-2.8 4.713-5.683 9.333-8.65 13.86-.42.64-.54 1.14-.36 1.5.267.506.987.57 2.16.19.847-.267 1.033-.027.56.72-1.533 2.42-3.177 4.806-4.93 7.16-5.98 8.04-12.067 18.04-18.26 30-5.727 11.06-9.377 21.923-10.95 32.59l-1.2-1.03c.393-7.02 1.45-13.937 3.17-20.75 3.767-13.854 9.263-26.943 16.49-39.27 2.847-4.86 4.95-8.423 6.31-10.69 2.073-3.473 4.343-6.937 6.81-10.39.062-.089.1-.192.11-.301.009-.108-.01-.218-.055-.321s-.116-.195-.206-.268c-.09-.072-.196-.124-.309-.15l-4.86-1.07c-.96-.113-1.423-.467-1.39-1.06.02-.36.27-.727.75-1.1.947-.734 1.907-1.45 2.88-2.15 1.053-.773 1.96-1.54 2.72-2.3 7.633-7.66 14.05-16.26 19.25-25.8.347-2.053 1.527-3.11 3.54-3.17z" fill="#fbf9f5"/><path d="m618.25 451.04-7.54 5.71c-12.747 7.406-26.387 12.323-40.92 14.75.32-.647.413-1.3.28-1.96-.028-.135-.108-.255-.225-.336-.116-.081-.26-.118-.405-.104-1.453.14-2.893.356-4.32.65-1.773.366-3.207.59-4.3.67-9.453.693-18.91.746-28.37.16-1.293-.08-2.703-.29-4.23-.63-1.4-.314-2.807-.6-4.22-.86-.367-.067-.383-.174-.05-.32.687-.314 1.403-.42 2.15-.32 1.26.173 1.91.26 1.95.26 24.067.38 47.133-2.857 69.2-9.71 5.907-1.834 12.257-4.587 19.05-8.26.108-.057.241-.077.382-.057.141.019.286.077.418.167.307.213.69.276 1.15.19z" fill="#b35421"/><path d="m629.79 515.75c-.153.56-.487.977-1 1.25-2.613-4.127-6.607-9.98-11.98-17.56-4.76-6.72-9.543-14.7-14.35-23.94l8.57-4.05c.057-.026.119-.04.182-.04s.126.013.184.04c.057.026.109.065.151.113.042.049.074.106.093.167 4.447 15.327 10.497 30 18.15 44.02z" fill="#b35421"/><path d="m402 477.79 4.86 1.07c.113.026.219.078.309.151s.16.164.206.267c.045.103.064.213.054.322-.009.108-.047.211-.109.3-2.467 3.453-4.737 6.917-6.81 10.39-1.36 2.267-3.463 5.83-6.31 10.69-7.227 12.327-12.723 25.417-16.49 39.27-1.133.747-1.473.393-1.02-1.06.093-.293.19-1.047.29-2.26.06-.76.223-1.483.49-2.17.947-2.413 1.867-4.84 2.76-7.28 1.04-2.827 2.01-5.24 2.91-7.24 6.04-13.427 12.983-26.25 20.83-38.47.075-.117.126-.247.15-.384.024-.136.021-.276-.008-.411-.03-.134-.086-.262-.166-.374-.079-.113-.18-.208-.296-.281-1.347-.853-1.897-1.697-1.65-2.53z" fill="#13110c"/><path d="m337.65 608.41c-.867-1.26-1.5-2.813-1.9-4.66-1.207-5.533-1.997-10.037-2.37-13.51-3.047-28.7-1.303-57.087 5.23-85.16 1.533-6.587 3.683-12.177 6.45-16.77.953-1.58 1.977-1.713 3.07-.4.201.24.321.556.34.9.3 4.693-.017 9.34-.95 13.94-1.727 8.48-3.31 16.98-4.75 25.5-3.167 18.8-4.113 37.717-2.84 56.75.4 6.007.893 12.67 1.48 19.99.072.928-.115 1.859-.54 2.69-.467.913-1.28 1.317-2.44 1.21-.153-.016-.303-.067-.438-.15s-.251-.196-.342-.33z" fill="#e58c4a"/><path d="m368.79 515.5c.453-.1.733.003.84.31.067.18.043.42-.07.72-4.42 11.6-7.757 23.51-10.01 35.73-5.027 27.346-1.797 53.583 9.69 78.71 6.867 15.02 16.767 28.633 29.7 40.84 1.9 1.793 3.657 2.99 5.27 3.59.044.017.082.046.112.082s.05.079.058.125c.008.045.004.092-.012.134-.016.043-.042.08-.078.109-.513.426-.873.976-1.08 1.65-5.6-4.367-10.703-9.254-15.31-14.66-23.727-27.814-34.277-60.094-31.65-96.84 1.24-17.334 5.42-34.167 12.54-50.5z" fill="#13110c"/><path d="m629.79 515.75 1.15 2.44c.075.157.169.294.274.403s.22.186.336.227c.833.293 1.397.85 1.69 1.67.36 1 .553 1.523.58 1.57 4.18 8.26 7.243 16.923 9.19 25.99.527 2.427 1.033 4.86 1.52 7.3.527 2.62.893 5.077 1.1 7.37.953 10.46.827 20.553-.38 30.28-.18 1.44-.847 1.76-2 .96 1.873-14.153 1.04-29.057-2.5-44.71-2.793-12.367-6.78-23.117-11.96-32.25.513-.273.847-.69 1-1.25z" fill="#3e190f"/><path d="m514.54 544.04c1.247 4.307 3.547 8.98 6.9 14.02 5.987 9.013 11.153 19.513 15.5 31.5.587 1.627 1.303 5.037 2.15 10.23.093.567.383 1.453.87 2.66.367.907.54 1.84.52 2.8-.047 2.12-.037 3.41.03 3.87 1.193 8.467-.29 16.947-4.45 25.44-1.173 2.4-2.603 4.037-4.29 4.91-.125.066-.271.092-.419.077-.149-.016-.295-.074-.421-.167l-3.11-2.23c-1.213-.867-2.183-.593-2.91.82-1.867 3.593-4.483 4.667-7.85 3.22-1.52-.66-3.267-1.977-5.24-3.95-.98-.98-1.89-1.45-2.73-1.41-1.013.053-2.08.463-3.2 1.23-1.447.987-2.727.8-3.84-.56-1.633-1.987-3.503-4.3-5.61-6.94-.82-1.02-1.633-1.193-2.44-.52-.307-.927-.877-1.357-1.71-1.29-.887-.48-1.82-.67-2.8-.57-.16.016-.318.001-.465-.044-.146-.045-.278-.118-.385-.216-2.887-2.64-5.51-5.507-7.87-8.6-1.427-1.887-2.983-3.573-4.67-5.06-3.087-2.727-5.947-5.67-8.58-8.83-1.147-1.38-2.71-2.943-4.69-4.69-3.427-3.013-6.093-6.65-8-10.91-1.02-2.267-2.123-4.493-3.31-6.68-1.093-2.013-.633-3.817 1.38-5.41.103-.083.224-.142.353-.174.129-.031.263-.033.393-.006.13.026.252.081.359.161.106.08.193.182.255.299 2.7 5.04 5.907 9.733 9.62 14.08.273.32.87 1.2 1.79 2.64.613.953 1.393 1.72 2.34 2.3 1.507.92 2.49 1.613 2.95 2.08.867.88 1.74 1.747 2.62 2.6.136.13.284.231.432.293.148.063.292.086.418.067l2.32-.37 2.79 2.96c.6.633.817.517.65-.35-.98-4.98-1.38-9.92-1.2-14.82.047-1.3.36-1.367.94-.2 3.907 7.86 8.437 15.34 13.59 22.44 3.393 4.673 6.413 9.22 9.06 13.64.72 1.207 1.103 1.107 1.15-.3.24-7.22-.193-14.217-1.3-20.99 0-.033-.173-.75-.52-2.15-.24-.953-.293-1.937-.16-2.95.153-1.2.45-1.233.89-.1l4.82 12.36c2.847 8.06 6.513 16.15 11 24.27.393.707.733.68 1.02-.08 2.587-6.907 3.497-13.72 2.73-20.44-.353-4.453-.973-8.867-1.86-13.24-.073-.373-.113-.717-.12-1.03-.02-1.913.4-2.063 1.26-.45 2.087 3.933 4.1 7.92 6.04 11.96 1.793 5.16 2.843 10.477 3.15 15.95.007.133-.013.293-.06.48-.1.373-.013.53.26.47.105-.02.205-.08.288-.172.083-.093.146-.213.182-.348 2.3-9.22 2.433-17.593.4-25.12-2.173-8.033-5.113-15.773-8.82-23.22-3.493-7.013-6.94-14.047-10.34-21.1-5.173-10.713-7.783-22.17-7.83-34.37z" fill="#352b2b"/><path d="m504.76 523.81c.047 12.2 2.657 23.657 7.83 34.37 3.4 7.053 6.847 14.087 10.34 21.1 3.707 7.447 6.647 15.187 8.82 23.22 2.033 7.527 1.9 15.9-.4 25.12-.036.135-.099.255-.182.348-.083.092-.183.152-.288.172-.273.06-.36-.097-.26-.47.047-.187.067-.347.06-.48-.307-5.473-1.357-10.79-3.15-15.95-.88-6.54-2.903-12.703-6.07-18.49-.36-1.493-1.013-2.813-1.96-3.96-5.447-10.72-8.677-17.17-9.69-19.35-4.747-10.227-7.35-21.373-7.81-33.44-.173-4.527.747-8.59 2.76-12.19z" fill="#faf9ef"/><path d="m514.54 544.04c9.247 12.88 16.797 25.887 22.65 39.02 3.653 8.207 5.727 17.187 6.22 26.94.5 9.9-1.58 19.19-6.24 27.87-.967 1.793-2.397 3.223-4.29 4.29-1.187.673-2.163.607-2.93-.2l-2.67-2.79c-.04-.043-.088-.078-.141-.102-.053-.025-.109-.038-.165-.039-.055-.001-.109.01-.156.033s-.088.056-.118.098c-.88 1.193-1.79 2.363-2.73 3.51-.96 1.16-2.03 1.83-3.21 2.01-1.387.207-2.737.087-4.05-.36-1.14-.387-2.223-1.213-3.25-2.48-.847-1.04-1.683-2.163-2.51-3.37-.179-.26-.448-.446-.759-.526-.31-.081-.644-.05-.941.086l-4.04 1.87c-1.633.753-2.983.403-4.05-1.05l-7.16-9.81c.807-.673 1.62-.5 2.44.52 2.107 2.64 3.977 4.953 5.61 6.94 1.113 1.36 2.393 1.547 3.84.56 1.12-.767 2.187-1.177 3.2-1.23.84-.04 1.75.43 2.73 1.41 1.973 1.973 3.72 3.29 5.24 3.95 3.367 1.447 5.983.373 7.85-3.22.727-1.413 1.697-1.687 2.91-.82l3.11 2.23c.126.093.272.151.421.167.148.015.294-.011.419-.077 1.687-.873 3.117-2.51 4.29-4.91 4.16-8.493 5.643-16.973 4.45-25.44-.067-.46-.077-1.75-.03-3.87.02-.96-.153-1.893-.52-2.8-.487-1.207-.777-2.093-.87-2.66-.847-5.193-1.563-8.603-2.15-10.23-4.347-11.987-9.513-22.487-15.5-31.5-3.353-5.04-5.653-9.713-6.9-14.02z" fill="#381e17"/><path d="m374.54 561 1.2 1.03c1.12 14.66 4.707 29.817 10.76 45.47 6.533 16.9 16.513 31.417 29.94 43.55 5.793 5.233 12.453 9.757 19.98 13.57.194.1.408.157.625.165.218.009.435-.03.635-.115 8-3.4 15.773-5.373 23.32-5.92 13.38-.973 26.457.55 39.23 4.57 6.62 2.08 12.21 5.77 16.77 11.07.226.264.506.476.822.623s.659.224 1.008.227c14.673.133 28.78-.873 42.32-3.02 25.2-4 46.863-14.94 64.99-32.82-2.447 4.547-6.347 9.56-11.7 15.04-12.247 12.52-26.027 21.303-41.34 26.35l-59.54-.6c-.339-.007-.659-.104-.92-.28-1.513-1.02-3.08-2.387-4.7-4.1-5.333-5.607-11.947-9.047-19.84-10.32-8.487-1.367-17.667-1.26-27.54.32-8.587 1.38-16.51 5.087-23.77 11.12-.184.154-.405.255-.64.292-.234.037-.473.009-.69-.082-4.267-1.74-8.05-3.667-11.35-5.78-16.493-10.553-29.26-24.517-38.3-41.89-7.253-13.933-11.273-29.507-12.06-46.72-.407-8.813-.143-16.063.79-21.75z" fill="#b35421"/><path d="m476.75 600.71-2.32.37c-.126.019-.27-.004-.418-.067-.148-.062-.296-.163-.432-.293-.88-.853-1.753-1.72-2.62-2.6-.46-.467-1.443-1.16-2.95-2.08-.947-.58-1.727-1.347-2.34-2.3-.92-1.44-1.517-2.32-1.79-2.64-3.713-4.347-6.92-9.04-9.62-14.08-.062-.117-.149-.219-.255-.299-.107-.079-.229-.135-.359-.161-.13-.027-.264-.025-.393.006-.129.032-.25.091-.353.174-2.013 1.593-2.473 3.397-1.38 5.41 1.187 2.187 2.29 4.413 3.31 6.68 1.907 4.26 4.573 7.897 8 10.91 1.98 1.747 3.543 3.31 4.69 4.69 2.633 3.16 5.493 6.103 8.58 8.83 1.687 1.487 3.243 3.173 4.67 5.06 2.36 3.093 4.983 5.96 7.87 8.6.107.098.239.171.385.216.147.045.305.06.465.044.98-.1 1.913.09 2.8.57-.373 2.16-1.347 3.253-2.92 3.28-1.007.02-2.073-.5-3.2-1.56-1.4-1.327-2.64-2.8-3.72-4.42-2.347-3.513-5.077-6.7-8.19-9.56-5.34-4.913-9.99-9.763-13.95-14.55-3.773-4.573-6.863-9.853-9.27-15.84-2.867-7.153-3.587-14.44-2.16-21.86.107-.567.273-.583.5-.05 3.233 7.593 7.377 14.593 12.43 21 3.807 4.82 8.787 10.327 14.94 16.52z" fill="#381e17"/><path d="m315.688 599.964c5.55 11.585 11.811 20.133 13.982 19.093 2.172-1.041-.568-11.276-6.118-22.861-5.551-11.585-11.811-20.133-13.983-19.092-2.171 1.04.568 11.275 6.119 22.86z" fill="#e58c4a"/><path d="m689.2 578.21c.66-.586 1.517-.823 2.57-.71.138.015.272.057.393.125.122.067.228.159.314.269s.149.236.185.371c.037.135.046.276.028.415-.733 5.414-2.123 10.654-4.17 15.72-2.96 7.334-6.623 14.297-10.99 20.89-1.053 1.6-2.337 2.987-3.85 4.16-.767.587-1.16.397-1.18-.57-.073-3.12.243-6.193.95-9.22.513-2.24 1.43-5.17 2.75-8.79 2.733-7.486 6.557-14.39 11.47-20.71.987-1.267 1.497-1.916 1.53-1.95z" fill="#e58c4a"/><path d="m519.5 588.79c.947 1.147 1.6 2.467 1.96 3.96-1.067-1.1-1.72-2.42-1.96-3.96z" fill="#f3a874"/><path d="m522.21 614c.767 6.72-.143 13.533-2.73 20.44-.287.76-.627.787-1.02.08-4.487-8.12-8.153-16.21-11-24.27.033-1.787.407-1.833 1.12-.14 2.84 6.727 6.043 13.273 9.61 19.64.167.293.323.287.47-.02 2.16-4.513 2.773-9.007 1.84-13.48-.407-1.933.163-2.683 1.71-2.25z" fill="#f3a874"/><path d="m682 633.21 1.44.25c.121.023.258-.007.394-.088.136-.08.264-.207.366-.362l6.96-10.79c.056-.091.075-.208.053-.337-.021-.129-.082-.263-.173-.383l-.79-1.04c1.9-2.887 4.28-5.447 7.14-7.68 1.173-.913 1.797-.627 1.87.86.093 1.933-.08 3.887-.52 5.86-3.107 14.067-9.54 26.547-19.3 37.44-2.767 3.08-5.757 5.623-8.97 7.63-.833.52-1.57.817-2.21.89-1.647.2-2.067-.787-1.26-2.96 2.893-7.807 7.893-17.57 15-29.29z" fill="#2b2625"/><path d="m315.96 623.5c-.62.38-1.056.887-1.31 1.52-.055.134-.07.286-.044.44.027.154.094.306.194.44 2.913 3.887 5.504 7.973 7.77 12.26 2.3 4.353 3.467 6.557 3.5 6.61 1.82 3.313 3.614 6.64 5.38 9.98.32.607.664.95 1.03 1.03.574.127 1.08-.23 1.52-1.07l3.64 8.7c.994 2.373.304 2.967-2.07 1.78-2.92-1.46-5.533-3.353-7.84-5.68-10.746-10.853-18.14-23.657-22.18-38.41-.613-2.24-.88-4.53-.8-6.87.074-2.06.867-2.39 2.38-.99 3.267 3.02 6.21 6.44 8.83 10.26z" fill="#2f2a27"/><path d="m690.25 620.46.79 1.04c.091.12.152.254.173.383.022.129.003.246-.053.337l-6.96 10.79c-.102.155-.23.282-.366.362-.135.081-.273.111-.394.088l-1.44-.25c2.373-4.493 5.123-8.743 8.25-12.75z" fill="#1f1c19"/><path d="m315.96 623.5c6.88 9.9 12.893 20.303 18.04 31.21-.44.84-.947 1.197-1.52 1.07-.367-.08-.71-.423-1.03-1.03-1.767-3.34-3.56-6.667-5.38-9.98-.033-.053-1.2-2.257-3.5-6.61-2.267-4.287-4.857-8.373-7.77-12.26-.101-.134-.167-.285-.194-.44-.026-.154-.011-.306.044-.44.253-.633.69-1.14 1.31-1.52z" fill="#1f1c19"/><path d="m653.21 624.75c-7.68 20.233-19.833 37.247-36.46 51.04-.953-1.06-.933-1.97.06-2.73 2.067-1.567 3.413-2.72 4.04-3.46 2.48-2.927 5.08-5.743 7.8-8.45 5.253-5.24 9.85-11.477 13.79-18.71 3.693-6.787 6.67-12.84 8.93-18.16.062-.152.165-.28.291-.362s.267-.113.399-.088c.493.08.877.387 1.15.92z" fill="#1f1c19"/><path d="m635.04 624c.62.107 1.09.397 1.41.87.081.118.13.262.144.42s-.008.326-.064.49c-1.587 4.553-3.617 8.44-6.09 11.66-1.22 1.587-2.227 3.05-3.02 4.39-1.24 2.1-2.207 3.577-2.9 4.43-3.9 4.827-7.89 9.583-11.97 14.27-3.007 3.447-6.02 6.253-9.04 8.42-5.707 4.093-12.313 8.007-19.82 11.74-3.387 1.68-6.62 2.31-9.7 1.89-.141-.02-.274-.085-.381-.187-.107-.101-.183-.235-.219-.383l-.29-1.22c15.313-5.047 29.093-13.83 41.34-26.35 5.353-5.48 9.253-10.493 11.7-15.04z" fill="#422116"/><path d="m355.29 661.22c-8.54-7.847-14.21-17.424-17.01-28.73-.793-3.22.18-3.924 2.92-2.11 1.26.833 2.403 1.8 3.43 2.9 7.727 8.227 13.613 17.783 17.66 28.67 1.087 2.906.177 3.736-2.73 2.49-.953-.414-2.377-1.487-4.27-3.22z" fill="#2b2625"/><path d="m463.97 681.03c.48 1.307 1.183 2.41 2.11 3.31.36.347.29.497-.21.45-2.987-.287-5.7-1.057-8.14-2.31-1.88-.96-3.653-1.603-5.32-1.93-1.053-.2-1.093-.527-.12-.98 2.947-1.353 6.02-2.27 9.22-2.75 4.733-.713 11.73-.987 20.99-.82 6.46.113 11.357 2.717 14.69 7.81.587.9.673 1.893.26 2.98-.022.054-.056.102-.1.14-.045.038-.098.065-.155.079-.058.014-.118.014-.176 0s-.113-.041-.159-.079c-3.76-3.067-7.567-5.357-11.42-6.87-1.693-.66-3.597-.797-5.71-.41-.32.06-.363.207-.13.44 1.767 1.74 3.22 3.707 4.36 5.9.16.3.07.437-.27.41-3.24-.24-5.95-.977-8.13-2.21-3.853-2.18-7.607-3.38-11.26-3.6-.054-.003-.109.007-.158.03s-.092.058-.125.101c-.033.044-.054.095-.062.149s-.003.109.015.16z" fill="#f1a365"/></g></svg>